<svg xmlns="http://www.w3.org/2000/svg" xmlns:xlink="http://www.w3.org/1999/xlink" id="Layer_1" x="0px" y="0px" viewBox="0 0 820.3 550.9" style="enable-background:new 0 0 820.3 550.9;" xml:space="preserve">
<style type="text/css">
	.st0{fill:#FFAA83;}
	.st1{fill:#713D22;}
	.st2{fill:#452312;}
	.st3{fill:#ED9870;}
	.st4{fill:#CC0000;}
	.st5{fill:#DCE8F6;}
	.st6{fill:#CE7C56;}
	.st7{fill:#A2B4CB;}
	.st8{fill:#C2D0DD;}
	.st9{fill:#B70059;}
	.st10{fill:#CDEEF8;}
	.st11{fill:#EA0072;}
	.st12{fill:#CAD9EA;}
	.st13{fill:#021A44;}
	.st14{fill:url(#SVGID_1_);}
	.st15{fill:#E09785;}
	.st16{fill:#1B4896;}
	.st17{opacity:0.4392;}
	.st18{fill:#007EFF;}
	.st19{fill:url(#SVGID_2_);}
	.st20{fill:url(#SVGID_3_);}
	.st21{fill:url(#SVGID_4_);}
	.st22{fill:#0154A3;}
	.st23{fill:#00195F;}
	.st24{fill:#0065D3;}
	.st25{fill:url(#SVGID_5_);}
	.st26{fill:#6CA4DF;}
	.st27{fill:url(#SVGID_6_);}
	.st28{fill:url(#SVGID_7_);}
	.st29{fill:url(#SVGID_8_);}
	.st30{fill:#3B3778;}
	.st31{fill:#6B6099;}
	.st32{fill:#7AB0FF;}
	.st33{fill:#FFFFFF;}
	.st34{fill:#FFB80D;}
	.st35{fill:#FFCC57;}
	.st36{opacity:0.7;fill:#09A9E3;enable-background:new    ;}
	.st37{opacity:0.3;fill:#C9CFE5;enable-background:new    ;}
	.st38{fill:url(#SVGID_9_);}
	.st39{fill:url(#SVGID_10_);}
	.st40{fill:url(#SVGID_11_);}
	.st41{fill:url(#SVGID_12_);}
	.st42{fill:url(#SVGID_13_);}
	.st43{fill:#00AFF6;}
	.st44{fill:url(#SVGID_14_);}
	.st45{fill:url(#SVGID_15_);}
	.st46{fill:#FA5A81;}
	.st47{fill:url(#SVGID_16_);}
	.st48{fill:#00B9F7;}
	.st49{fill:#019EF3;}
	.st50{fill:#3CDBE1;}
	.st51{fill:#75F4B4;}
	.st52{fill:#5EBDE0;}
	.st53{fill:url(#SVGID_17_);}
	.st54{fill:url(#SVGID_18_);}
	.st55{fill:url(#SVGID_19_);}
	.st56{fill:url(#SVGID_20_);}
	.st57{fill:url(#SVGID_21_);}
	.st58{fill:#9DD1BD;}
	.st59{fill:#E4F8FF;}
	.st60{fill:#BEEEFC;}
	.st61{fill:url(#SVGID_22_);}
	.st62{fill:#3DA2C1;}
	.st63{fill:#A6DDEE;}
	.st64{fill:url(#SVGID_23_);}
	.st65{fill:url(#SVGID_24_);}
	.st66{fill:url(#SVGID_25_);}
	.st67{fill:#85CDE3;}
	.st68{fill:#C2C1C1;}
	.st69{fill:#D8D8D8;}
	.st70{fill:#A2A2A2;}
	.st71{fill:#FFE270;}
	.st72{fill:#B08C00;}
	.st73{fill:url(#SVGID_26_);}
	.st74{fill:#8F7200;}
	.st75{fill:#D1A000;}
	.st76{fill:none;}
	.st77{fill:#001746;}
	.st78{fill:#990000;}
	.st79{fill:#FF0000;}
	.st80{fill:#00286E;}
</style>
<g id="Layer_2_1_">
</g>
<path class="st0" d="M678.6,110.3c-0.3-0.6-0.7-1.1-1.1-1.7c-2.1-3.3-4.8-6.1-8.2-8.3c-0.8-0.5-1.6-1-2.4-1.5  c0.8,0.4,1.6,0.9,2.4,1.4c3.3,2.3,6.1,5,8.2,8.3C678,109.1,678.3,109.7,678.6,110.3z M636.4,106.5L636.4,106.5L636.4,106.5  c0.1-0.2,0.1-0.3,0.2-0.4C636.5,106.2,636.5,106.3,636.4,106.5L636.4,106.5z M640.1,101.3c-0.5,0.6-1,1.2-1.4,1.7  c-0.1,0.1-0.2,0.2-0.2,0.3c-0.4,0.6-0.8,1.1-1.1,1.7C638.1,103.6,639,102.4,640.1,101.3z M675.3,139.5c-1.3,2.1-2.2,3.5-2.8,4.3  c-1.5,2-3.2,3.7-5.1,4.9c-0.4,0.3-0.8,0.5-1.2,0.7c-0.7,0.3-1.3,0.3-1.8,0.1c-0.4-0.2-0.8-0.6-1.1-1.1c-2.2,3-5,5.5-8.3,7.6  c-6.1,3.9-12.2,5.1-18.5,3.6c-0.2-0.1-0.5-0.1-0.7-0.2c-0.2,0-0.3-0.1-0.5-0.1c-2.1-0.8-3.6-2.4-4.4-4.9c0-0.1-0.1-0.2-0.1-0.3  c-0.1-0.5-0.3-1.6-0.4-3.1c-0.1-1.1-0.2-2.5-0.4-4.2c-0.7-4.4-0.7-9.2,0.2-14.2c0.4-2.4,1.1-4.9,1.9-7.5c3,0,5.8,0.2,8.4,0.5  c6.8,0.9,12.2,2.8,16.2,5.8c1.4,1,3.1,2.5,5.1,4.4c0.5,0.4,1,0.8,1.6,1c0.2,0.1,0.5,0.2,0.7,0.3c0.1,1.3,0.1,2.5,0.1,3.7  c0.8,0,2-0.2,3.5-0.5c0.6-2.3,1.9-4,3.8-5.2c1.1-0.7,2.2-0.9,3.2-0.6c0.9,0.2,1.7,0.8,2.5,1.6c0.1-0.1,0.1-0.2,0.1-0.3l0.1,0.1  C676.6,137.3,675.9,138.5,675.3,139.5z M601.2,263.4c-1.2,2.4-1.8,5.4-1.9,9.2c0,0,0,0.2,0,0.3c-1.9,1-4.2,0.6-6.8-1.1  c-1.7-1-4.3-3.4-7.8-7.2c-0.9-1.5-1.9-3.1-3-4.8c-0.6-1-1.3-2-2-3c2.5-0.6,4.7-1.9,6.6-3.9c1.6-1.6,3.1-3.9,4.6-6.7  c0.2,0.3,0.4,0.6,0.6,0.9c2.1,0.6,5.3,1.4,9.5,2.5C601.1,254.2,601.2,258.8,601.2,263.4z M685.4,273c-0.2,0.7-0.4,1.4-0.4,2.2  c-0.2,2.2,0.1,4.3,1,6.3c0.8,2.1,2,3.5,3.5,4.2c1,0.4,2,0.5,3,0.3c-0.5,0.3-0.9,0.5-1.3,0.7c-2.4,2.6-5.4,4.7-8.9,6.1  c-3.1,1.3-6.5,2.1-10.2,2.5c-0.1,0-0.2,0-0.3,0c-3.7-0.4-6.3-2.8-7.8-6.9c-0.7-1.8-1.1-3.7-1.2-5.5c0-0.1,0-0.3,0-0.4  c-0.1-1.7,0.1-3.5,0.6-5.3c0.8-3.7,2.9-5.9,6.3-6.6c0.9-0.2,1.9-0.3,3.1-0.3C675.5,270.3,679.8,271.2,685.4,273z"></path>
<path class="st1" d="M658.4,95.7L658.4,95.7c0,0.2,0.1,0.3,0.1,0.3c0.1,0,0.1,0.1,0.2,0.1c0.1,0,0.1,0,0.2,0c0.1,0,0.1,0,0.2,0  c0.1,0,0.2,0,0.3,0c0.1-0.1,0.2-0.1,0.3-0.1l7.2,2.7c0.8,0.5,1.6,1,2.4,1.5c3.3,2.3,6.1,5,8.2,8.3c0.4,0.6,0.7,1.1,1.1,1.7l0.3,0.6  c0.7,1.3,1.2,2.6,1.7,3.9c-1.2,1-2.5,2-3.8,3c-1.6,1.2-3.2,2.3-4.6,3.1c-0.2,0.1-0.4,0.2-0.6,0.3c-0.1,0.1-0.3,0.2-0.4,0.2  c-0.2,0.1-0.5,0.3-0.7,0.4c-2.4,1.2-4.5,1.7-6.5,1.7c-0.6,0-1.2-0.1-1.8-0.2c-2.7-0.7-5.7-2.8-9-6.3c-0.2-0.2-0.4-0.4-0.6-0.6  c-0.2-0.3-0.4-0.5-0.6-0.8c-0.6-0.7-1.1-1.4-1.7-2.1c-1.4-1.7-2.6-3.2-3.7-4.5c-1.7-2.1-3.1-3.7-4.1-5c-0.1-0.1-0.1-0.1-0.2-0.2  c-0.1-0.1-0.1-0.2-0.2-0.3c-0.6-0.8-1.3-1.5-1.8-2.2l5.1-3.8c0.6-0.4,1.3-0.7,2-1c0.6-0.2,1.2-0.4,1.8-0.5l5.4-0.6  C655.6,95.3,657,95.5,658.4,95.7z M681.1,124.2c0,0.1,0,0.1,0,0.2c-0.1,0-0.1,0-0.1,0c-0.1,0-0.1,0.1-0.2,0.1  c-0.1,0.1-0.1,0.1-0.1,0.2s0,0.2-0.1,0.4c0,0.1,0,0.2,0,0.3c0,0.1,0.1,0.1,0.2,0.1h0.1c0,0.1,0,0.1,0,0.2c0,0.2-0.1,0.3-0.1,0.5  c-1.3,0.7-2.8,1.4-4.5,2.3c-1.3,0.7-2.8,1.5-4.3,2.4c-1,0.5-1.9,1-2.7,1.5c-2.1,1.2-3.8,2.2-5.2,3.1c-0.3-2-0.7-4-1.3-6.1  c1.4-0.2,2.8-0.5,4.2-1c2.5-0.8,5-1.9,7.6-3.4c0.6-0.3,1.2-0.7,1.8-1.1c0.2-0.1,0.4-0.2,0.6-0.4c0.1-0.1,0.3-0.2,0.4-0.3  c0.1-0.1,0.3-0.2,0.4-0.3c0,0,0.1,0,0.1-0.1c1.5-1,2.7-1.9,3.8-2.8l0,0C681.5,121.5,681.3,122.9,681.1,124.2z"></path>
<path class="st2" d="M640.1,101.3c0.6,0.7,1.2,1.4,1.8,2.2c0.1,0.1,0.1,0.2,0.2,0.3c0.1,0.1,0.1,0.1,0.2,0.2c1.1,1.3,2.4,3,4.1,5  c1.1,1.4,2.4,2.9,3.7,4.5c0.5,0.7,1.1,1.4,1.7,2.1c0.2,0.3,0.4,0.5,0.6,0.8c0.2,0.2,0.4,0.4,0.6,0.6c3.4,3.5,6.4,5.7,9,6.3  c0.6,0.1,1.3,0.2,1.8,0.2c1.9,0,4.1-0.6,6.5-1.7c0.2-0.1,0.5-0.2,0.7-0.4c0.1-0.1,0.3-0.1,0.4-0.2c0.2-0.1,0.4-0.2,0.6-0.3  c1.5-0.8,3-1.9,4.6-3.1c1.4-1,2.7-2,3.8-3c0.5,1.5,0.9,3.1,1.1,4.7c-0.1,0.2-0.1,0.4-0.1,0.6l0,0c-1.1,0.9-2.4,1.9-3.8,2.8l-0.1,0.1  c-0.2,0.1-0.3,0.2-0.4,0.3c-0.1,0.1-0.3,0.2-0.4,0.3c-0.2,0.1-0.4,0.2-0.6,0.4c-0.6,0.4-1.2,0.7-1.8,1.1c-2.6,1.5-5.1,2.7-7.6,3.4  c-1.4,0.4-2.8,0.8-4.2,1c0-0.1-0.1-0.3-0.1-0.4c-4.2-0.3-8-1.6-11.4-4c-2.6-1.7-4.6-3.7-6.1-6.1c-0.6-1-1.2-2.1-1.6-3.2  c-0.5-1.3-1.2-2.4-2.2-3.4c-0.7-0.7-1.6-1.3-2.7-1.9c-0.2,0.4-0.4,0.7-0.5,1c-0.7,1.3-1.2,2.4-1.6,3.2c-0.9,1.6-1.6,3-2.1,4.2v-0.1  c0-0.1,0-0.2,0-0.2c0-0.1,0-0.1,0-0.2l0.9-7.8l0.1-1.3c0-0.1,0-0.1,0.1-0.1c0.3-0.9,0.7-1.8,1.1-2.7v-0.1c0.1-0.1,0.1-0.2,0.2-0.3  c0.1-0.2,0.2-0.4,0.3-0.6c0,0,0-0.1,0.1-0.1l0,0c0.1-0.1,0.2-0.3,0.3-0.4c0.4-0.6,0.8-1.1,1.1-1.7c0.1-0.1,0.1-0.2,0.2-0.3  C639.1,102.5,639.6,101.9,640.1,101.3z M680.7,126.2l-1.4,5.1c-0.6,1.6-1.2,3.1-2,4.5c0,0.1-0.1,0.2-0.1,0.3  c-0.8-0.9-1.6-1.4-2.5-1.6c-1-0.3-2.1-0.1-3.2,0.6c-1.9,1.1-3.1,2.9-3.8,5.2c-1.6,0.3-2.8,0.5-3.5,0.5c0-1.2,0-2.4-0.1-3.7  c-0.1-0.5-0.1-1-0.2-1.5c1.4-0.9,3.2-2,5.2-3.1c0.9-0.5,1.8-1,2.7-1.5c1.5-0.9,3-1.7,4.3-2.4C677.8,127.6,679.3,126.8,680.7,126.2z"></path>
<path class="st3" d="M664.1,137.1c-0.2-0.1-0.5-0.2-0.7-0.3c-0.5-0.3-1-0.6-1.6-1c-2-1.9-3.7-3.3-5.1-4.4c-4-3-9.4-4.9-16.2-5.8  c-2.6-0.3-5.4-0.5-8.4-0.5c0.5-1.8,1.2-3.7,1.8-5.5c0.1-0.1,0.1-0.2,0.1-0.4c0-0.1,0.1-0.1,0.1-0.2c0.5-1.2,1.3-2.6,2.1-4.2  c0.4-0.8,0.9-1.9,1.6-3.2c0.2-0.3,0.3-0.6,0.5-1c1.1,0.5,1.9,1.2,2.7,1.9c1,1,1.7,2.1,2.2,3.4c0.4,1.1,1,2.2,1.6,3.2  c1.5,2.3,3.5,4.4,6.1,6.1c3.4,2.4,7.3,3.7,11.4,4c0,0.1,0.1,0.3,0.1,0.4c0.5,2.1,1,4.2,1.3,6.1C664,136.1,664,136.6,664.1,137.1z   M635.2,109.3c0.3-0.9,0.7-1.8,1.1-2.7l0,0C636,107.4,635.6,108.3,635.2,109.3L635.2,109.3L635.2,109.3z"></path>
<path class="st4" d="M671.4,174c-1.6,1-3.4,2-5.4,3.1c-0.2,0.2-0.4,0.3-0.5,0.3c-0.4-0.1-0.6-1-0.6-2.4c0-0.7,0.2-1.5,0.7-2.4  c2.9-2.7,4.5-5,4.9-7.1c0.1-0.7,0.3-1.4,0.4-2.1c0.1-0.4,0.1-0.7,0.1-1.1c0.2-1.4,0.2-2.7,0.2-3.8c-0.3-3.4-2.2-5.8-5.7-7.1  c0.1-0.7,0.4-1.3,0.7-1.9c0.4-0.2,0.8-0.4,1.2-0.7c1.9-1.2,3.6-2.9,5.1-4.9c0.6-0.8,1.5-2.2,2.8-4.3c1.4,0.6,2.7,1.3,3.9,2.1  c2.9,2.1,4.9,4.6,5.9,7.5c0.5,1.5,0.8,3,0.8,4.7c0,4.4-1.4,8.3-4.1,11.7c-0.8,0.9-1.7,1.9-2.7,2.8C677.1,170.1,674.5,172,671.4,174z   M628.9,169c-0.1-0.4-0.2-1-0.4-1.8c-0.6-3.7-0.3-7.8,0.8-12.3c0.2-0.9,0.4-1.8,0.7-2.7c0.1-0.4,0.2-0.8,0.4-1.1  c0.2,1.5,0.3,2.5,0.4,3.1c0,0.1,0.1,0.2,0.1,0.3c0.8,2.5,2.3,4.1,4.4,4.9c0.2,0.1,0.3,0.1,0.5,0.1c0.2,0.1,0.5,0.1,0.7,0.2  c-0.2,0.3-0.3,0.7-0.5,1c-0.1,0.2-0.2,0.4-0.3,0.6c-0.2,0.3-0.4,0.7-0.6,1c0-0.2,0-0.5-0.1-0.7c0-0.3-0.1-0.6-0.3-1  c0-0.1-0.1-0.2-0.1-0.3C632.1,163.5,630.2,166.4,628.9,169z"></path>
<path class="st5" d="M635.1,162.3c0.1,0.5,0.1,1.1,0.1,1.8c0,0.3,0,0.6,0,0.9c-0.1,1.4,0.2,4.1,0.8,8.1l-0.5-0.1  c-2.9,3.1-4.3,5.1-4.3,5.9c0,0.5,0.1,1.5,0.3,3l-1.1,2.1c-0.5,0-1-0.2-1.4-0.7c-0.4-0.6-0.7-1.3-0.9-2c-0.4-1.5-0.8-3-1-4.6  c-0.1-1-0.1-2,0.1-3c0.3-1.4,0.8-3,1.7-4.8c1.3-2.6,3.2-5.5,5.7-8.7c0,0.1,0.1,0.2,0.1,0.3c0.1,0.4,0.2,0.7,0.3,1  C635.1,161.8,635.1,162,635.1,162.3z M665.6,151.3c3.5,1.3,5.4,3.6,5.7,7.1c0,1.2,0,2.4-0.2,3.8c0,0.3,0,0.7-0.1,1.1  c-0.1,0.7-0.2,1.4-0.4,2.1c-0.4,2-2.1,4.4-4.9,7.1c-1,0.9-2,1.8-3.2,2.7c-4.9,3.7-12.2,8-21.8,12.9c-0.1-0.2-0.1-0.4-0.2-0.6  c-0.1-0.3-0.2-0.7-0.3-1c-0.9-3.2-1.6-6.2-1.8-8.9c-0.1-1.3-0.2-2.5-0.2-3.7c0.2-0.1,0.4-0.2,0.7-0.3c0.2-0.1,0.5-0.2,0.7-0.3  c8-3.5,14.3-7,18.6-10.4c4.6-3.6,6.9-6,7.1-6.9C665.2,155,665.4,153.4,665.6,151.3L665.6,151.3z M590.8,246.2c-1.4,2.8-3,5-4.6,6.7  c-1.9,2.1-4.1,3.4-6.6,3.9c-0.4,0.1-0.9,0.2-1.3,0.2c-1.6-2.7-3.2-5.3-4.9-7.8c-3-4.2-6.3-8-10-11.3c-0.1-0.2-0.3-0.3-0.4-0.5  c-0.7-0.8-1.5-1.7-2.2-2.7c-2.1-2.7-4.2-5.9-6.3-9.6c-3.4-6.2-6-10.8-7.7-13.7c-3-5.8-4.6-9.2-4.9-10.3c-1.3-4.1-1-7.7,0.9-10.6  c0.7-0.9,1.5-1.8,2.4-2.7c0.7-0.7,1.4-1.4,2.2-2.1c0.9-0.8,1.8-1.6,2.7-2.4c1.4-1.2,3-2.3,4.7-3.5c0.4-0.3,0.9-0.6,1.3-0.8  c1-0.6,2.1-1.3,3.3-2c0.9-0.5,1.8-1,2.8-1.6c1.3-0.7,2.7-1.4,4.2-2.2c0.8-0.4,1.6-0.8,2.4-1.2l0,0c0.3-0.2,0.7-0.5,1-0.7  c2.2-1.5,4.3-2.8,6.5-4c0.8-0.5,1.6-0.9,2.4-1.3c0.4-0.2,0.7-0.4,1.1-0.6c0.3-0.1,0.6-0.3,0.9-0.4c1.6-0.8,3.2-1.6,4.7-2.4  c2.1-1.1,4.2-2.1,6.1-3.2c3.6-2,7-4.3,10-6.9c2.1-1.4,4.1-2,6-1.9c0.7,0,1.3,0.2,1.9,0.4c1.6,0.2,3.9,0.8,7,1.7  c1.9,0.5,3.5,1,4.8,1.4c-1.4,0.6-2.7,1.3-3.9,2.1c-9.3,5.6-14.4,14.7-15.4,27.2l-0.1,2.7c0,0.2,0,0.5,0,0.9c0,2.6-0.3,4.8-1,6.6  c0.2-2.3,0.4-4.5,0.7-6.8v-0.1c0,0,0.1-0.1,0.1-0.2v-0.1c0,0,0-0.1,0.1-0.1c0-0.1,0-0.2-0.1-0.2c-3.5,1.3-6.2,2.7-8.1,4.1  c-0.3,0.2-0.6,0.5-0.9,0.7c-0.8,0.7-1.8,1.4-2.8,2c-0.8,0.5-1.7,1-2.7,1.5c-0.7,0.3-1.4,0.7-2.1,1c-1.4-0.2-2.6-0.4-3.8-0.8  c-1.3,0.5-2.2,0.7-2.5,0.7c-5,0-9-1.2-12-3.7c-2.8-2.2-5-3.2-6.7-3c1,3,3.3,7.1,6.9,12.6c0.2,0.3,0.4,0.6,0.6,0.9  c1,1.5,1.9,2.8,2.7,3.9c0.4,0.6,0.8,1.1,1.2,1.5l2.7,5l6.1,11.3l3,5.6l2.4,4.5l6.1,11.3C591.1,245.6,591,245.9,590.8,246.2z   M718.1,197.7c1.8,2.5,3.6,5.1,5.4,7.8c2.6,3.8,4.1,6.1,4.4,6.8c2.4,2.9,4.9,6.7,7.5,11.5l6.6,12.1c1.6,2.8,2.5,5.4,2.9,7.8  c0.4,3.1-0.2,5.7-1.8,7.9c-3.1,4.2-7.9,8.4-14.5,12.7c-3.7,2.3-6.4,4-8.3,5.2c-3.3,2.1-6,3.9-8,5.5c-1.7,1.3-4.7,2.9-8.9,4.7  c-4,1.8-6.9,3.4-8.7,5c-0.8,0.6-1.6,1-2.4,1.2c-1,0.3-2,0.2-3-0.3c-1.5-0.7-2.7-2.1-3.5-4.2s-1.2-4.2-1-6.3c0.1-0.8,0.2-1.5,0.4-2.2  c0.4-1.3,1.1-2.3,2-3c3.5-2.5,8.2-6.8,14.2-12.9c3.6-3.8,6.8-6.9,9.5-9.3c0.3,0,0.6,0.1,0.8,0.1c12.3-8.5,18.5-12.8,18.5-12.9  c-0.1-0.8-0.2-1.4-0.4-1.6c-0.3-0.1-0.7-0.3-1-0.4v0.4c-4.8,0.9-7.9,1.3-9.3,1.3c-4.5-0.2-8.2-0.3-11.2-0.4  c-2.2-2.7-4.4-5.2-6.6-7.6l0,0c-1.7-1.9-3.7-4.6-6.1-7.9c-0.3-0.4-0.6-0.8-0.8-1.2c-0.1-0.1-0.2-0.3-0.4-0.5  c-0.7-1.2-1.4-2.3-2.1-3.1l-1.1-1.6c0-0.1-0.1-0.2-0.1-0.3c-0.5-1.3-0.9-2.6-1.2-4.1c-0.7-2.8-1.1-4.6-1.1-5.4  c0-5.7,0.7-10.4,1.9-14.2c1.2-3.7,3-6.5,5.3-8.3c1.9-1.6,4.1-2.4,6.4-2.6c0.9,1.3,2.2,3.1,4,5.2c1.9,2.5,4.4,5.7,7.5,9.6  C715.4,194.2,716.7,195.9,718.1,197.7z"></path>
<path class="st6" d="M666.3,149.4c-0.3,0.6-0.5,1.2-0.7,1.9c0,0,0,0-0.1,0c-0.1,2.1-0.3,3.7-0.4,4.7c-0.1,1-2.5,3.3-7.1,6.9  c-4.4,3.4-10.6,6.9-18.6,10.4c-0.9-0.9-1.6-2.2-2.1-3.9c-0.3-1.1-0.7-3-1.1-5.5c-0.1-0.4-0.1-0.8-0.2-1.1c-0.1-0.6-0.2-1.1-0.3-1.6  c0.1-0.2,0.2-0.4,0.3-0.6c0.2-0.3,0.3-0.6,0.5-1c6.3,1.5,12.4,0.3,18.5-3.6c3.3-2.1,6.1-4.7,8.3-7.6c0.3,0.5,0.6,0.9,1.1,1.1  C665,149.7,665.6,149.7,666.3,149.4z"></path>
<path class="st7" d="M631.5,182c0.1,0.9,0.3,2.1,0.5,3.4c-2,2.9-3.8,6.1-5.3,9.7c0-1.6,0-2.4,0-2.5c0-3.7,0.5-7.4,1.4-11.2  c0.2,0.7,0.5,1.4,0.9,2c0.4,0.4,0.9,0.7,1.4,0.7L631.5,182z M639.4,173.3c-0.2,0.1-0.5,0.2-0.7,0.3l-2.7-0.4c-0.6-4-0.9-6.7-0.8-8.1  c0-0.3,0-0.6,0-0.9c0.3-0.4,0.5-0.9,0.8-1.3c0.1,0.4,0.1,0.7,0.2,1.1c0.4,2.5,0.8,4.3,1.1,5.5C637.8,171.1,638.5,172.4,639.4,173.3z   M669.6,270.6c-3.4,0.7-5.5,2.9-6.3,6.6c-0.5,1.8-0.7,3.5-0.6,5.3c-0.1,0-0.2,0.1-0.3,0.1c0.3-4.2,0.5-6.8,0.5-7.6  c0-2.2-0.5-7.7-1.6-16.5c-1.2-8.4-1.8-12.7-1.8-12.9c0-0.8,3.2-6.7,9.7-17.5c7.9-13.2,12.3-20.6,13.2-22.2c1.1-2,2.2-5.2,3.2-9.7  c0.7-3.4,1.4-6.1,2.2-8.2c0.3-0.8,0.6-1.5,0.8-2c1.9-3.9,5.2-7.4,9.8-10.6c1.4,0.6,2.7,1.3,3.7,1.8c0,0.2,0.2,0.4,0.4,0.5  c-2.4,0.1-4.5,1-6.4,2.6c-2.3,1.9-4.1,4.7-5.3,8.3c-1.2,3.8-1.9,8.5-1.9,14.2c0,0.8,0.4,2.6,1.1,5.4c0.3,1.4,0.7,2.8,1.2,4.1  c0.1,0,0.1,0.1,0.1,0.3c-0.6-0.8-1-1.4-1.3-1.8c-1.1,2.6-3.7,7.1-7.7,13.4c-3.2,4.9-6,10-8.2,15.5c-2,4.8-3.1,9.8-3.5,15.1  c-0.2,2.3-0.4,4.7-0.6,7.1c-0.1,1.4-0.2,3-0.4,4.7C669.7,268,669.7,269.4,669.6,270.6z M665.6,172.5c-0.4,0.9-0.7,1.8-0.7,2.4  c0,1.5,0.2,2.3,0.6,2.4c0.1,0,0.3,0,0.5-0.3c1.9-1,3.7-2.1,5.4-3.1c-0.2,0.3-0.5,0.6-0.7,0.9c-0.9,1.2-2.3,2.6-4.1,4.1  c-2,1.6-4.5,3.4-7.5,5.4c-5.4,3.5-9.5,6.8-12.4,9.9c-0.4,0.4-0.7,0.8-1.1,1.2c-4.8,5.5-8.2,12.6-10.4,21.3c-1.1,4.7-2.8,17.1-5.2,37  c-0.8,6.6-1.6,11.8-2.3,15.7c-0.2-9-0.4-15.9-0.4-20.8c0-10.1,0.7-18.7,2.2-25.7c0.2-5.3,1.6-12,4.1-20c1.5-5,2.7-9,3.6-12.2  c0.9-1.1,2-2.2,3.1-3.2c0.1,0.2,0.1,0.4,0.2,0.6c9.6-4.9,16.9-9.2,21.8-12.9C663.6,174.3,664.7,173.3,665.6,172.5z"></path>
<path class="st8" d="M628.1,181.4c-0.9,3.8-1.4,7.6-1.4,11.2c0,0.1,0,0.9,0,2.5c-1.1,2.7-2.1,5.5-3,8.6c-1,3.5-2.5,11.4-4.7,23.6  c-1.1,5.4-1.8,12.4-2.2,21c-0.6,11.1-1,18.1-1.3,20.9c-0.5,3.7,1.5,7.7,6.1,11.7c1.5-0.3,2.8-1.1,4.1-2.3c1.2-1.3,2-2.7,2.2-4.1  c0-1.8-0.1-3.4-0.1-5.1c0.7-3.8,1.4-9.1,2.3-15.7c2.4-19.9,4.2-32.3,5.2-37c2.2-8.7,5.6-15.8,10.4-21.3c0.3-0.4,0.7-0.8,1.1-1.2  c2.9-3.1,7-6.3,12.4-9.9c3-2,5.5-3.8,7.5-5.4c1.8-1.5,3.2-2.8,4.1-4.1c0.2-0.3,0.5-0.6,0.7-0.9c3.1-1.9,5.6-3.8,7.7-5.7  c2,1.4,4.5,2.6,7.5,3.5c1.7,0.6,4.4,1.3,8.1,2.2c1.4,0.4,2.6,0.9,3.8,1.4c-4.6,3.2-7.9,6.7-9.8,10.6c-0.3,0.6-0.6,1.3-0.8,2  c-0.7,2-1.5,4.7-2.2,8.2c-1,4.5-2,7.8-3.2,9.7c-0.9,1.6-5.3,9-13.2,22.2c-6.4,10.8-9.7,16.7-9.7,17.5c0,0.2,0.6,4.6,1.8,12.9  c1.1,8.8,1.6,14.3,1.6,16.5c0,0.9-0.2,3.4-0.5,7.6h-0.1c-2.8,1.5-5.7,2.8-8.7,3.8c-3.4,1-6.9,1.7-10.4,2.2  c-7.9,0.8-15.4,0.1-22.6-2.4c-4.6-1.3-8-2.4-10.3-3.5c-1.9-1-3.6-2-5-3.2c-0.7-0.7-1.3-1.5-1.9-2.3c-0.7-1.9-1.1-4.4-1.3-7.4  c-0.1-3.4-0.2-6-0.4-7.7c-0.2,0.4-0.5,0.8-0.7,1.2c0-4.6-0.1-9.2-0.2-13.8c0-1.5-0.1-3-0.1-4.5c-0.3-6.9-0.7-13.8-1-20.6  c-0.2-8,0-16.1,0.7-24.1c0-0.4,0-0.7-0.1-1.1c-0.1-1.6,0-3.2,0.1-4.8c0-0.3,0.1-0.5,0.1-0.7c0.7-1.8,1.1-4,1-6.6c0-0.3,0-0.6,0-0.9  l0.1-2.7c0.9-12.5,6-21.6,15.4-27.2c1.2-0.8,2.5-1.4,3.9-2.1c0.8,0.2,1.6,0.4,2.1,0.5c2.3,0.4,4.4,0.4,6.2,0.1  c-1.1,4.5-1.4,8.7-0.8,12.3c0.1,0.8,0.3,1.4,0.4,1.8c-0.9,1.8-1.4,3.4-1.7,4.8c-0.2,1-0.2,2-0.1,3  C627.3,178.4,627.7,179.9,628.1,181.4z M635.1,162.3c0.2-0.3,0.4-0.7,0.6-1c0.1,0.5,0.2,1,0.3,1.6c-0.3,0.4-0.5,0.9-0.8,1.3  C635.2,163.4,635.2,162.8,635.1,162.3z M640.4,187.5c-1.2,1-2.2,2.1-3.1,3.2c0.3-1.1,0.6-2,0.8-2.9c0.1,0,0.1,0,0.1,0l1.8-1.4  C640.2,186.8,640.3,187.2,640.4,187.5z"></path>
<path class="st9" d="M632,185.4c-0.2-1.3-0.4-2.5-0.5-3.4c-0.2-1.5-0.3-2.5-0.3-3c0-0.8,1.4-2.8,4.3-5.9l0.5,0.1l2.7,0.4  c-0.2,0.1-0.4,0.2-0.7,0.3c0,1.2,0.1,2.4,0.2,3.7c0.3,2.7,0.9,5.7,1.8,8.9l-1.8,1.4h-0.1c-1.1-0.3-2.2-0.6-3.3-0.9  c-0.9-0.3-1.7-0.5-2.6-0.8C632.1,185.9,632.1,185.6,632,185.4z"></path>
<path class="st10" d="M502.1,125.1l10.2,5.9v0.5c-3.4,0.1-6.8,0.2-10.2,0.3L502.1,125.1L502.1,125.1z M467.5,107.7  c4.4,0.9,9.7,3.2,16.1,6.8l3.2,1.8v7.2l14.2,8.2c-2.2,0-4.4,0.1-6.6,0.1l-3.2-1.8v1.7l-17.9-10.3v-1.8l-8.1-4.7v1.7l-3.9-2.3l-3.2,8  l-4.8-2.8v7.8l2.2,1.3l-0.6,1.5c-1.9-0.2-3.8-0.3-5.6-0.5l-1.1-2.7l0.8-2.1l0.2,0.1v-0.6l3.6-9l2.1,1.3v-5.5  c1.2-1.6,2.8-2.8,4.7-3.4l2.6,1.5v-2c0.8-0.1,1.6-0.1,2.4,0v3.5l3,1.7v-4.7H467.5z M501.6,132.2l0.5,0.3v-0.3  c3.4-0.1,6.8-0.2,10.2-0.3v6.5l7.6,4.4v-7.4l12.7,7.3v7.3l9.2,5.3V148l1,0.6v7.4l4.5,2.6v-7.4l1.3,0.7v7.3l4.1,2.4v-7.4l1.9,1.1v7.3  l15,8.7c-0.3,0.2-0.7,0.5-1,0.7l0,0c-0.8,0.4-1.6,0.8-2.4,1.2L562,171v1.4l-3.3-1.9v-1.4l-10.1-5.9v1.5l-3-1.7v-1.4l-4.9-2.9v1.5  l-2.2-1.3v-1.5l-4.9-2.9v1.5l-2.2-1.3v-1.6l-4.9-2.8v1.5l-5.1-2.9v-1.6l-9-5.2v1.6L502,138v-1.7l-7.1-4.1  C497.2,132.2,499.4,132.2,501.6,132.2z M450.9,130.3v3.5l-1.5-3.7C449.9,130.2,450.4,130.3,450.9,130.3z M454.7,130.6l-0.5,1.3  l-2.9-1.6C452.5,130.4,453.6,130.5,454.7,130.6z M600.5,194.5l-7.2-4.2c1.9-1.4,4.6-2.8,8.1-4.1c0.1,0,0.1,0.1,0.1,0.2  c-0.1,0-0.1,0.1-0.1,0.1v0.1c0,0.1,0,0.2-0.1,0.2v0.1c-0.3,2.3-0.5,4.5-0.7,6.8C600.5,194,600.5,194.2,600.5,194.5z M589.6,356.8  l3.8-9.4c0.6,3.6,1.4,7,2.4,10.4l-0.1,0.2c-1.6,3.7-4.1,5.9-7.6,6.6c-0.1,0-0.2,0-0.3,0c-0.2,0.1-0.4,0.1-0.7,0.1  c-0.1,0-0.2,0-0.3,0.1c-0.1,0-0.2,0-0.3,0l-10-1.9c-0.2-0.1-0.4-0.2-0.7-0.3l-2.2-0.9c-2.5-1.1-5.2-2.5-8.1-4.2l-65.9-38v-0.3H499  l-40.8-23.6c1.1-3.1,2.1-6.4,2.8-9.9L588.6,359L589.6,356.8z"></path>
<path class="st11" d="M637.3,190.7c-0.9,3.2-2.1,7.3-3.6,12.2c-2.5,8-3.8,14.7-4.1,20c-1.5,7-2.2,15.6-2.2,25.7  c0,4.9,0.2,11.8,0.4,20.8c0,1.6,0.1,3.3,0.1,5.1c-0.2,1.5-1,2.9-2.2,4.1s-2.6,2-4.1,2.3c-4.6-4.1-6.6-8-6.1-11.7  c0.3-2.8,0.7-9.8,1.3-20.9c0.4-8.6,1.1-15.6,2.2-21c2.1-12.2,3.7-20.1,4.7-23.6c0.9-3.1,1.8-5.9,3-8.6c1.5-3.6,3.3-6.9,5.3-9.7  c0.1,0.2,0.1,0.5,0.1,0.7c0.9,0.3,1.7,0.6,2.6,0.8c1.1,0.3,2.2,0.6,3.3,0.9C637.8,188.7,637.6,189.7,637.3,190.7z"></path>
<path class="st12" d="M708.4,234.3c3,0.1,6.7,0.2,11.2,0.4c1.4,0,4.5-0.4,9.3-1.3V233c0.3,0.1,0.7,0.3,1,0.4  c0.2,0.2,0.4,0.7,0.4,1.6c-0.1,0.1-6.2,4.5-18.5,12.9c-0.2,0-0.5,0-0.8-0.1c1.7-1.6,3.3-2.8,4.7-3.8  C713.3,240.6,710.9,237.3,708.4,234.3z M586.9,194.5c0.1,0,0.2,0,0.3,0c-0.8,0.4-1.6,0.8-2.4,1.2c-2.5,1.2-5,2.4-7.6,3.4  c-0.3,0.1-0.6,0.2-0.8,0.3c-2.7,1-4.9,1.8-6.5,2.3c-0.6,0.2-1.2,0.4-1.6,0.5l1.6,3.1l1.2,2.3c-0.4-0.4-0.8-0.9-1.2-1.5  c-0.8-1.1-1.7-2.4-2.7-3.9c-0.2-0.3-0.4-0.6-0.6-0.9c-3.5-5.4-5.8-9.6-6.9-12.6c1.7-0.2,4,0.7,6.7,3c3.1,2.5,7.1,3.7,12,3.7  c0.4,0,1.2-0.2,2.5-0.7c1.2,0.4,2.5,0.7,3.8,0.8C585.5,195.2,586.2,194.9,586.9,194.5z"></path>
<path class="st13" d="M595.7,357.9c-1-3.4-1.7-6.9-2.4-10.4c-1.1-6.1-1.6-12.5-1.6-19.1c0-14.6,2.4-29.6,7.2-45  c0.2-1.4,0.3-3.1,0.3-5.2c0-2.8,0-4.5,0-5.2c0-0.2,0-0.3,0-0.3c0.1-3.7,0.7-6.8,1.9-9.2c0.2-0.4,0.4-0.8,0.7-1.2  c0.2,1.7,0.3,4.3,0.4,7.7c0.1,3,0.6,5.5,1.3,7.4c0.5,0.8,1.2,1.6,1.9,2.3c1.6,1.6,3.6,2.9,6,4.1c2.1,1,5.3,2,9.7,3.2  c1.2,0.3,2.3,0.7,3.5,1c2,0.5,3.9,0.8,5.9,1v0.1c-0.4,0-0.8-0.1-1.2-0.1c-1,6.6-1.5,10.8-1.5,12.6c0,8.7,2.7,19.4,8,32.1  c0.6,0.5,1.3,2,2.1,4.4c0.1,0.3,0.3,0.7,0.5,1c-0.1,1.5-0.2,3.1-0.3,4.9c-0.1,1.3-0.1,2.6-0.2,3.9c-0.4,7.3-0.4,13-0.1,17.1  c2.5,12.4,4.1,23.7,5,34c0,0.2,0,0.4,0,0.5c0.1,0.9,0.2,1.8,0.2,2.7c0.8,11.3,0.8,22,0.1,32.2c-0.2,1.1-0.2,2.8,0,5.1  c0.1,1.9,0.4,4.2,0.8,6.8c0.8,5,0.6,8.8-0.7,11.6c-0.9,1.5-2,2.9-3.2,4.2c-1.8,1.8-3.8,3.4-6.2,4.7c-0.9,0.5-1.7,1-2.6,1.4  c-1,0.3-2,0.5-3.1,0.8l0,0c-0.9,0.3-1.7,0.5-2.6,0.6c-1,0.3-2.1,0.5-3.1,0.7c-0.3,0-0.7,0-1,0c-3.6-0.6-6.5-1.6-8.7-3  c-2.8-1.9-4.2-4.3-4.1-7.2c0-0.1,0-0.2,0-0.3c0.5-6.5,0.6-15.1,0.1-25.8c-0.7-13.4-1-22-1-25.8c0.1-5.9-0.4-11.9-1.5-18.1  c-1-5.5-2.7-11.4-4.9-17.6c-1.5-3.1-2.8-6.3-3.9-9.5C596.7,361.3,596.2,359.6,595.7,357.9z"></path>
<linearGradient id="SVGID_1_" gradientUnits="userSpaceOnUse" x1="698.6626" y1="97.3752" x2="598.2862" y2="109.1912" gradientTransform="matrix(1 0 0 1 0 178)">
	<stop offset="0" style="stop-color:#A8DAEB"></stop>
	<stop offset="0.6824" style="stop-color:#E5EAE3"></stop>
</linearGradient>
<path class="st14" d="M630.5,288.9v-0.1c-2-0.2-3.9-0.5-5.9-1c-1.1-0.3-2.3-0.6-3.5-1c-4.3-1.1-7.6-2.2-9.7-3.2  c-2.4-1.1-4.4-2.5-6-4.1c1.4,1.2,3.1,2.3,5,3.2c2.2,1,5.6,2.2,10.3,3.5c7.2,2.4,14.7,3.2,22.6,2.4c3.6-0.4,7.1-1.2,10.4-2.2  c-3.9,1.3-7.9,2.2-12.1,2.5C637.8,289.3,634.1,289.3,630.5,288.9z"></path>
<path class="st15" d="M703.3,422.9c-0.7-3.9-1.5-7.5-2.4-11c0.7,1.7,1.2,3.4,1.5,5.1C702.8,418.8,703.1,420.8,703.3,422.9z"></path>
<path class="st16" d="M687.1,525c0-0.1,0-0.2-0.1-0.4c-0.5-2.7-0.6-6.1-0.4-10.2c0.3-3.5,0.6-6.4,0.7-8.6c0.1-0.1,0.2-0.1,0.3-0.2  l0.1-0.1v-0.1c0-0.2,0-0.3,0-0.5c0-0.1,0-0.2-0.1-0.3c-0.1-0.1-0.2-0.1-0.3-0.1l0,0c0-0.2,0-0.3,0-0.5c0.2-4,0.1-7.5-0.4-10.3  c-0.2-1.6-0.3-3-0.3-4.4c1.1,1.5,2.6,2.7,4.2,3.7l0.1,0.1c2.4,1.3,5,2,7.8,2.1c2.9,0.1,5.5-0.4,7.9-1.6c0.8-0.4,1.5-0.8,2.1-1.2  c0.5-0.4,1-0.8,1.5-1.2c0.5,1.8,1.1,3.8,1.6,6.1c1.8,7.9,2.2,14,1.3,18.5c-0.5,2.4-1,4.5-1.6,6.3c-0.5,1.6-1.1,2.9-1.7,4  c-1.2,2.3-2.8,4.2-4.9,5.8c-2.2,1.7-4.4,2.7-6.8,3.1c-2.6,0.5-5,0.2-7.2-0.9C689.2,531.4,687.8,528.4,687.1,525z"></path>
<g class="st17">
	<path class="st18" d="M448.9,95v6.8l-10.3-5.9l-2.2-1.3l-7.4-4.2v-7.7l19,11l0.8,0.5V95H448.9z M430.6,95.1l2.2,1.3l5.6,3.2v7.8   l-9.3-5.3v-5.2v-1.5v-1L430.6,95.1z M465.7,92.6V94v5.9l-9.4-5.4l-0.8-0.4v-1v-6.8l10.2,5.8L465.7,92.6L465.7,92.6z M502.1,92v1.5   v4.1l-7.2-4.1l-1.9-1.1V92v-7.4l9.1,5.2V92z M565,126.2c-1.3,0.2-2.7,0.5-4,0.7v-3L565,126.2z M558.7,127.3   c-1.4,0.2-2.9,0.4-4.3,0.6l-5.8-3.4v-7.8l10.1,5.8V127.3z M561,127.2c1.5-0.2,3-0.5,4.4-0.7l19.8,11.4v7.8l-24.2-14V127.2z    M558.7,127.5v2.8l-3.9-2.3C556.1,127.9,557.4,127.7,558.7,127.5z M540.1,129.6v-6.1l4.9,2.7v2.8   C543.4,129.2,541.7,129.4,540.1,129.6z M545,129.4v4.6l-4.9-2.7v-1.4C541.7,129.7,543.4,129.6,545,129.4z M549.4,128.8l3.4,2v7.8   l-4.9-2.7V129C548.5,129,549,128.9,549.4,128.8z M548,128.7V128l1,0.6C548.6,128.6,548.3,128.7,548,128.7z M529.5,130.5   c-3.2,0.2-6.4,0.4-9.6,0.6l-7.6-4.4V119l17.2,10L529.5,130.5L529.5,130.5z M512.3,115.2v-7.8l5.4,3.1v7.8L512.3,115.2z    M526.1,111.5l-13.8-8v-7.8l13.8,8V111.5z M519.9,135.4v7.4l-7.6-4.4v-6.5c0.7,0,1.3,0,2-0.1l5.6,3.2V135.4z M512.3,131v-0.4   l1.4,0.8c-0.5,0-1,0-1.4,0.1V131z M502.1,131.8c-0.4,0-0.7,0-1.1,0l-14.2-8.2v-7.2V116l15.3,8.8v0.4L502.1,131.8L502.1,131.8z    M497.6,199.6l-8.2-4.7v-7.8l12.6,7.2v2.7v5.1L497.6,199.6z M494.3,201.6l7.8,4.5v7.8l-14.5-8.3l-2.2-1.3v-7.8L494.3,201.6z    M502.1,190.6l-5.3-3v-7.8l5.3,3.1V190.6z M499.2,157.9l2.9,1.6v7.8l-2.9-1.7V157.9z M485.4,169.3v-7.7l16.7,9.6v7.7L485.4,169.3z    M497.6,145.4l4.5,2.6v7.8l-4.5-2.6V145.4z M502,138v6.2l-10.9-6.3v-5.5c0.8,0,1.6,0,2.4,0c0.5,0,0.9,0,1.4,0l7.1,4.1V138z    M502.1,132.2v0.3l-0.5-0.3C501.8,132.2,501.9,132.2,502.1,132.2z M491.1,131.7V130l3.2,1.8c-0.2,0-0.5,0-0.7,0c-0.8,0-1.6,0-2.4,0   v-0.1H491.1z M470.4,131.3c-2.4-0.1-4.8-0.3-7.2-0.4v-5.5l7.2,4.3V131.3z M470.4,131.7v5.8l-7.2-4.2v-2   C465.6,131.4,468,131.6,470.4,131.7z M459.9,131.1v0.3l-0.6-0.3C459.5,131,459.7,131,459.9,131.1z M458.6,130.6l-0.4-0.2l-2.8-1.6   l-2.2-1.3v-7.8l4.8,2.8l1.9,1.1v2.7v4.4C459.5,130.7,459.1,130.6,458.6,130.6z M453.1,139.1l-2.2-5.3v-3.5c0.1,0,0.3,0,0.4,0   l2.9,1.6l0.7,0.4v6.5v1.4l-0.4-0.3L453.1,139.1z M529.5,130.9v5.8l-9-5.2C523.5,131.3,526.5,131.1,529.5,130.9z M429.1,59.4   l6.9,3.9v7.8l-6.9-4V59.4z M429.1,55.4v-7.8l14.7,8.4v7.8L429.1,55.4z M555.9,132.6l5.4,3.1v7.8l-5.4-3.1V132.6z M546.4,115.5v7.8   l-9-5.3v-7.8L546.4,115.5z M468,94v-0.6l0.9,0.5l8.1,4.7v7.8l-9-5.2V94z M446.7,123.7l-4.2-10.1l6.6,3.7v7.2v0.6L449,125   L446.7,123.7z M452.8,115.5l-7.2-4.1v-7.8l9.4,5.5v2.3v5.5L452.8,115.5z M462.1,107.4v2l-2.6-1.5l-0.4-0.2V100l3,1.8V107.4z    M467.5,107.7v4.8l-3-1.7v-3.5v-4.2l3,1.6v2.6V107.7z M498.2,118.6v-7.8l3.9,2.3v7.8L498.2,118.6z M502.1,109.3l-4.9-2.9v-7.8   l4.9,2.9V109.3z M531.3,154.8v6.2l-4.9-2.8V152v-1.5l4.9,2.8V154.8z M532.6,142.8v-0.5l9.2,5.4v0.4v7.3l-9.2-5.3V142.8z M521.3,149   v6.2l-9-5.2v-6.2v-1.6l9,5.2V149z M533.5,156v-1.5l4.9,2.9v1.5v6.3l-4.9-2.8V156z M525.3,161.5v7.8l-13.1-7.5V154L525.3,161.5z    M512.3,165.5l4.1,2.3v7.8l-4.1-2.4V165.5z M540.7,160.1v-1.5l4.9,2.9v1.4v6.3l-4.9-2.9V160.1z M542.8,175.1v4.1l-4.9-2.8l-3.5-2   v-7.8l8.3,4.8v3.7H542.8z M514.4,190l10.4,6.1v7.8l-12.6-7.2v-5.3v-2.5L514.4,190z M517.8,188.1l-5.5-3.2v-7.8l12.2,7.1l4.4,2.5   v7.8L517.8,188.1z M512.3,200.4l5.3,3v7.8l-5.3-3.1V200.4z M482.4,171.4v7.8l-3.8-2.3v-7.8L482.4,171.4z M585.2,162.8   c-1.5,0.8-3.1,1.6-4.7,2.4c-0.3,0.1-0.6,0.3-0.9,0.4l-21.5-12.3v-7.8l27.1,15.7L585.2,162.8L585.2,162.8z M585.2,149.5v7.8   l-18.8-10.9v-7.8L585.2,149.5z M542.8,148.7v-0.3l4.5,2.6v0.3v7.4l-4.5-2.6V148.7z M548.6,152v-0.4l4.1,2.4v0.4v7.4l-4.1-2.4V152z    M548.6,164.7v-1.5l10.1,5.9v1.4v6.3l-10.1-5.8V164.7z M576.1,167.5c-2.2,1.2-4.3,2.6-6.5,4l-15-8.7v-7.3V155L576.1,167.5z    M546.4,138.7v7.7l-5.7-3.2v-7.7L546.4,138.7z M548.6,140l5.9,3.4v7.8l-5.9-3.5V140z M566.2,173.4c-1.5,0.7-2.9,1.5-4.2,2.2v-3.1   V171L566.2,173.4z M550,183.4l-1.4-0.8v-7.7l0,0h0.1l7.3,4.2c-0.4,0.3-0.9,0.6-1.3,0.8C553,181.1,551.4,182.2,550,183.4z    M547.3,185.8c-0.8,0.7-1.5,1.4-2.2,2.1v-3.4L547.3,185.8z M569.9,201.7v3.5l-1.6-3.1C568.7,202.1,569.2,202,569.9,201.7z    M582.8,229.5l2.4,1.4v3.1L582.8,229.5z M579.8,223.9l-6.1-11.3l11.5,6.6v7.8L579.8,223.9z M577.2,199.2c2.6-1,5.1-2.2,7.6-3.4   l0.4,0.3v7.8L577.2,199.2z M579.4,204.3l5.8,3.4v7.7l-5.8-3.4V204.3z M459.7,65.3v7.8l-11.2-6.4v-7.8L459.7,65.3z M472,72.5v7.8   l-7.6-4.4v-7.8L472,72.5z M453.8,96.9l3,1.7v7.8l-3-1.7V96.9z M453.3,84.9v7.8l-24.3-14V71L453.3,84.9z M444.1,75.8V68l4.8,2.8v7.8   L444.1,75.8z M469.4,82.6v7.8l-6.6-3.8v-7.8L469.4,82.6z M465.2,116.8L465.2,116.8V115l8.1,4.7v1.8v6l-8.1-4.7V116.8L465.2,116.8z    M464.1,145.5l-3.9-2.4v-7.8l3.9,2.3V145.5z M468.8,152l4.6,2.7v7.8l-4.6-2.7V152z M459.3,154.3l-3.8-9.2v-0.7l4.5,2.6v7.7   L459.3,154.3z M456.2,175.7c0.4-2.4,0.9-4.7,1.5-6.9l3.1,1.8v7.8L456.2,175.7z M454.9,186.6c0.2-2.5,0.4-5,0.7-7.3l8,4.5v7.8   L454.9,186.6z M457.7,223.1c-0.5-2.9-1-5.8-1.4-8.6l7.8,4.4l1.6,0.9v7.8L457.7,223.1z M477,273v7.8l-9-5.2v-7.8L477,273z    M463.2,264.9l2.5,1.4v7.8l-2.8-1.6C463.1,270.1,463.2,267.5,463.2,264.9z M462.9,253.1l3.5,2v7.8l-3.1-1.8   C463.2,258.5,463.1,255.8,462.9,253.1z M473.6,255.5l-5.6-3.2v-7.7l5.6,3.2V255.5z M469.4,256.9l4.9,2.8v7.8l-4.9-2.7V256.9z    M472.5,243.2v-7.7l9.2,5.3v7.8L472.5,243.2z M471.4,234.9v7.7L467,240v-7.7L471.4,234.9z M480.7,236.4l-4.9-2.9v-7.8l4.9,2.8   V236.4z M461.5,240.8l4.2,2.4v7.7l-3.2-1.8C462.3,246.4,461.9,243.6,461.5,240.8z M461.6,229.2l4.1,2.4v7.8l-4.1-2.4V229.2z    M458.6,227.4l1.1,0.6v4.2C459.3,230.7,459,229,458.6,227.4z M468.7,221.6l4.9,2.9v7.8l-4.9-2.9V221.6z M474.2,213.2l5.6,3.2v7.8   l-8.3-4.7v-4.7v-3.1L474.2,213.2z M473.1,166l3.8,2.3v7.8l-3.8-2.2V166z M467.4,170.5v-7.8l3.7,2.2v7.8L467.4,170.5z M465.7,169.6   l-3.8-2.1v-7.8l3.8,2.1V169.6z M468,186.4l3.8,2.1v7.8l-3.8-2.1V186.4z M458.2,204l7.5,4.3v7.8l-7.5-4.3V204z M462.3,202.4v-7.7   l6.9,3.9v7.8L462.3,202.4z M560.8,234.7c0.7,1,1.5,1.9,2.2,2.7l-2.2-1.3V234.7z M545.5,231.2v7.8l-4.6-2.7v-7.8L545.5,231.2z    M554.3,243.9v-7.8l4.4,2.6v7.8L554.3,243.9z M548.6,221.3l3.8,2.2v7.8l-3.8-2.2V221.3z M547,228.1l-3.8-2.1v-7.8l3.8,2.1V228.1z    M573.4,249.2c1.7,2.5,3.4,5.1,4.9,7.8c0.4-0.1,0.9-0.1,1.3-0.2c0.7,1,1.4,2.1,2,3l-8.3-4.8L573.4,249.2L573.4,249.2z M561.1,263.4   v7.8l-6.6-3.8v-7.8L561.1,263.4z M565.2,273.6v-7.8l6.6,3.8v7.8L565.2,273.6z M559.4,281.8V274l9.5,5.4v7.8L559.4,281.8z    M549.2,268.2v7.8l-8.1-4.7v-7.8L549.2,268.2z M552.2,281.5l2.9,1.7v7.8l-2.9-1.8V281.5z M546.8,278.4l2.9,1.6v7.8l-2.9-1.6V278.4z    M554.2,247.9v7.8l-3.9-2.4v-7.8L554.2,247.9z M543.9,253.5l7.2,4.2v7.8l-7.2-4.3V253.5z M567.6,263.3v-7.8l17.6,10.3v7.8   L567.6,263.3z M559.4,250.7l4,2.4v7.8l-4-2.3V250.7z M579.9,282v-7.8l5.3,3v7.8L579.9,282z M502.1,295.2l-13.8-8v-7.8l13.8,7.9   V295.2z M537.4,292.3v-7.8l9,5.2v7.8L537.4,292.3z M517.2,292.4l-4.9-2.9v-7.8l4.9,2.9V292.4z M512.3,293.3l9,5.2v7.8l-9-5.2V293.3   z M527.5,267.3v7.8l-15.2-8.9v-7.8L527.5,267.3z M512.3,270.1l3.9,2.2v7.8l-3.9-2.3V270.1z M523.2,253.2v7.7l-10.9-6.3v-7.8   L523.2,253.2z M496.7,280.4v-7.8l5.4,3.1v7.8L496.7,280.4z M484.9,262v-7.7l17.2,9.9v7.8L484.9,262z M502.1,252.6v7.7l-7.7-4.4   v-7.7L502.1,252.6z M502.1,229.3v7.8l-13.1-7.6v-7.8L502.1,229.3z M493,243.5v-7.8l9.1,5.2v7.8L493,243.5z M483,237.7v-7.8l4.9,2.9   v7.8L483,237.7z M497.9,215.3l4.1,2.4v7.7l-4.1-2.4V215.3z M512.3,243v-7.8l4.4,2.6v7.8L512.3,243z M512.3,223.6l2.9,1.7v7.8   l-2.9-1.6V223.6z M512.3,219.7V212l16.6,9.6v7.8L512.3,219.7z M537.4,214.9l3.8,2.2v7.8l-3.8-2.3V214.9z M532,211.8l3.8,2.2v7.7   l-3.8-2.1V211.8z M578.3,327.6v-7.8l6.9,4v7.8L578.3,327.6z M570.5,334.8V327l14.7,8.5v7.7L570.5,334.8z M565.9,332l-11.2-6.5v-7.7   l11.2,6.5V332z M561,306v-7.8l24.2,14v7.8L561,306z M565.4,312.4l4.8,2.8v7.8l-4.8-2.8V312.4z M542.3,310.7l7.6,4.4v7.8l-7.6-4.4   V310.7z M551.5,312.2l-6.5-3.8v-7.8l6.5,3.8V312.2z M548.6,298.8V291l10.1,5.9v7.8L548.6,298.8z M557.6,292.4v-7.8l2.9,1.8v7.8   L557.6,292.4z M585.2,300.6v7.8L565.4,297v-7.8L585.2,300.6z M585.2,289v7.8l-9.2-5.4v-7.7L585.2,289z"></path>
</g>
<linearGradient id="SVGID_2_" gradientUnits="userSpaceOnUse" x1="378.1123" y1="252.2181" x2="458.0025" y2="113.983" gradientTransform="matrix(1 0 0 1 0 178)">
	<stop offset="8.627450e-02" style="stop-color:#E8FAFF"></stop>
	<stop offset="0.9686" style="stop-color:#C4F2FF"></stop>
</linearGradient>
<path class="st19" d="M300.5,316.2c10.3,13.2,21.6,26.8,34,40.8c18.1,0.3,34-1.1,47.7-4.4l81.1,46.5c2.5,1.4,4.8,2.7,6.9,3.8  c9.1,4.4,15.3,5.7,18.7,3.8l58.9-33.8c0.6-0.3,1-0.7,1.2-1.1c0.9-1.5-0.2-3.7-3.5-6.4c-2.4-2.1-6-4.5-10.8-7.2l-83.5-47.9  c2.9-4.4,5.3-9.3,7.1-14.5l40.8,23.6l0.4,0.3l65.9,38c2.9,1.7,5.6,3.1,8.1,4.2c8.9,6,12.2,11,10,15.1c-0.8,1.3-2.1,2.5-4.1,3.6  l-127.8,73.8h-0.1c-5.2,3-11.6,3.5-19.3,1.6c-5.6-1.4-11.8-4.1-18.8-8l-145.8-84.2c-8.1-4.6-13.1-8.8-15.1-12.4  c-0.1-0.1-0.2-0.3-0.3-0.5c-0.8-2-0.7-3.8,0.3-5.5c0.8-1.2,2.1-2.4,3.8-3.5L300.5,316.2z M338.1,383.4c0.7,0.6,1.8,1.4,3.2,2.3  l38.4,22c4.3,2.4,7.5,3.1,9.7,1.9L420,392l0.1-0.1c1.9-1.1,1.1-2.8-2.6-5.1c-0.2-0.1-0.4-0.3-0.7-0.4l-38.3-22.1  c-4.3-2.4-7.5-3-9.7-1.8l-30.6,17.6C336.7,381,336.7,382.1,338.1,383.4z"></path>
<linearGradient id="SVGID_3_" gradientUnits="userSpaceOnUse" x1="252.2328" y1="122.7073" x2="600.139" y2="122.7073" gradientTransform="matrix(0.9656 0.2599 2.410000e-02 1.0421 3.2527 155.8019)">
	<stop offset="0.4784" style="stop-color:#B2F2FF"></stop>
	<stop offset="0.6667" style="stop-color:#7CC9DA"></stop>
</linearGradient>
<path class="st20" d="M269.9,370.1V370c0-0.1,0-0.2,0-0.2c0-0.1-0.1-0.1-0.1-0.1l-0.3-0.2c-0.1-0.1-0.2-0.1-0.3-0.1  c-0.1,0-0.2,0.1-0.2,0.1l0,0l-1.2-0.7c-8.1-4.6-13.1-8.8-15.1-12.5c-1.1-2.1-1.2-4.1-0.3-5.8c0.1,0.2,0.2,0.4,0.3,0.5  c2,3.6,7,7.8,15.1,12.4l145.8,84.2c6.9,4,13.2,6.7,18.8,8c7.7,2,14.1,1.5,19.3-1.6h0.1l127.8-73.8c1.9-1.1,3.3-2.3,4.1-3.6  c1.6,3.4,0.2,6.4-4.1,8.9l-8.8,5.1l-119.1,68.7c-5.2,3-11.6,3.5-19.3,1.6c-5.6-1.5-11.8-4.2-18.8-8.2L269.9,370.1z"></path>
<linearGradient id="SVGID_4_" gradientUnits="userSpaceOnUse" x1="189.8184" y1="-292.1937" x2="505.2365" y2="-292.1937" gradientTransform="matrix(0.7088 0.7054 -1.02 0.3957 1.7549 98.9732)">
	<stop offset="0.4784" style="stop-color:#B2F2FF"></stop>
	<stop offset="0.6667" style="stop-color:#7CC9DA"></stop>
</linearGradient>
<path class="st21" d="M512.3,131l-10.2-5.9v-0.4l-15.3-8.8v0.4l-3.2-1.8c-6.3-3.7-11.7-5.9-16.1-6.8v-0.3c5.2-0.5,12.3,1.9,21.4,7.2  l29,16.8c-1.4,0.1-2.8,0.1-4.2,0.2l-1.4-0.8L512.3,131L512.3,131z M519.9,135.4V135l-5.6-3.2c1.4-0.1,2.8-0.1,4.2-0.2l60,34.6  c-0.8,0.4-1.6,0.8-2.4,1.3L554.6,155v0.4l-1.9-1.1V154l-4.1-2.4v0.4l-1.3-0.7V151l-4.5-2.6v0.3l-1-0.6v-0.4l-9.2-5.4v0.5  L519.9,135.4z M588,364.7c3.5-0.7,6-2.9,7.6-6.6l0.1-0.2c0.5,1.7,1,3.4,1.6,5.1C595,364.7,591.9,365.2,588,364.7z"></path>
<path class="st22" d="M470.4,131.7c6.8,0.3,13.7,0.5,20.7,0.6v5.5l10.9,6.3V138l10.3,5.9v6.2l9,5.2V149l5.1,2.9v6.2l4.9,2.8v-6.2  l2.2,1.3v6.3l4.9,2.8v-6.3l2.2,1.3v6.3l4.9,2.9V163l3,1.7v6.3l10.1,5.8v-6.3l3.3,1.9v3.1c-1,0.5-1.9,1.1-2.8,1.6  c-2.5-0.8-4.9-1.5-7.1-1.8c-1.2-0.2-2.4-0.3-3.5-0.4h-0.1l0,0c-1.3-0.1-2.5-0.1-3.6,0c-0.7,0-1.5,0.1-2.1,0.2v-3.6l-8.3-4.8v7.8  l3.5,2c-0.7,0.3-1.3,0.6-1.9,1l-11.6,6.7l-12.2-7.1v7.8l5.5,3.2l-3.3,1.9l-2.2-1.3v2.5l-10.2,5.9v-2.7l-12.6-7.2v7.8l8.2,4.7l-3.4,2  l-8.9-5.1v7.8l2.2,1.3l-13.3,7.7l-2.7-1.6v3.1l-7.3,4.2l-7.8-4.4c-1.4-10-1.9-19.3-1.4-27.9l8.7,4.9v-7.8l-8-4.5  c0.2-1.2,0.4-2.4,0.6-3.6l4.6,2.7v-7.8l-3.1-1.8c0.9-3.6,2.1-7.1,3.4-10.4l-0.1-0.1l-1.7-4.1l0.7,0.4V147l-4.5-2.6v0.7l-1.6-3.9  l0.5-1.3l0.4,0.3v-1.4l3.1-7.9c0.4,0,0.9,0.1,1.3,0.1l0.6,0.3V131c1.1,0.1,2.2,0.2,3.2,0.2v2l7.2,4.2L470.4,131.7L470.4,131.7z   M497.6,145.4v7.8l4.5,2.6V148L497.6,145.4z M485.4,169.3l16.7,9.6v-7.7l-16.7-9.6V169.3z M499.2,157.9v7.8l2.9,1.7v-7.8  L499.2,157.9z M502.1,190.6v-7.8l-5.3-3.1v7.8L502.1,190.6z M470.4,131.3v-1.6l-7.2-4.3v5.5c-1.1-0.1-2.2-0.1-3.2-0.2v-4.4l4-10  l0.1-0.1l0.2,0.1l1,0.6v5.9l8.1,4.7v-6l17.9,10.3v0.1C484.1,131.8,477.2,131.6,470.4,131.3z M458.2,130.6l0.1-0.2l0.4,0.2  C458.5,130.6,458.3,130.6,458.2,130.6z M600.4,199.3l-10.9-6.3c1-0.6,2-1.3,2.8-2c0.3-0.2,0.6-0.5,0.9-0.7l7.2,4.2  C600.4,196.1,600.4,197.7,600.4,199.3z M512.3,165.5v7.7l4.1,2.4v-7.8L512.3,165.5z M525.3,161.5l-13.1-7.6v7.8l13.1,7.5V161.5z   M482.4,171.4l-3.8-2.2v7.8l3.8,2.3V171.4z M468.8,152v7.7l4.6,2.7v-7.8L468.8,152z M464.1,145.5v-7.8l-3.9-2.3v7.8L464.1,145.5z   M465.7,169.6v-7.8l-3.8-2.1v7.8L465.7,169.6z M467.4,170.5l3.7,2.2v-7.8l-3.7-2.2V170.5z M473.1,166v7.8l3.8,2.2v-7.8L473.1,166z   M468,186.4v7.8l3.8,2.1v-7.8L468,186.4z M462.3,202.4l6.9,4v-7.8l-6.9-3.9V202.4z M458.2,204v7.8l7.5,4.3v-7.8L458.2,204z"></path>
<path class="st23" d="M589.6,193l10.9,6.3c0,0.4,0.1,0.7,0.1,1.1c-0.7,8.1-1,16.1-0.7,24.1c0.3,6.8,0.7,13.7,1,20.6  c0.1,1.5,0.1,3,0.1,4.5c-4.3-1.1-7.4-1.9-9.5-2.5c-0.2-0.3-0.4-0.6-0.6-0.9c0.1-0.3,0.3-0.6,0.4-0.9l-6.1-11.3v-3.1l-2.4-1.4l-3-5.6  l5.4,3.1v-7.8l-11.5-6.6l-2.7-5l-1.2-2.3v-3.5c1.6-0.5,3.8-1.2,6.5-2.3c0.3-0.1,0.6-0.2,0.8-0.3l8,4.6V196l-0.4-0.3  c0.8-0.4,1.6-0.8,2.4-1.2c-0.1,0-0.2,0-0.3,0C587.9,194,588.7,193.6,589.6,193z M474.2,213.2l13.3-7.7l14.5,8.3V206l-7.8-4.5l3.4-2  l4.4,2.6V197l10.2-5.9v5.3l12.6,7.2V196l-10.4-6.1l3.3-1.9l11.1,6.4v-7.8l-4.4-2.5l11.6-6.7c0.6-0.4,1.3-0.7,1.9-1l4.9,2.8v-4.1  c0.7-0.1,1.4-0.2,2.1-0.2c1.2-0.1,2.4-0.1,3.6,0v7.7l1.4,0.8c-0.9,0.8-1.8,1.6-2.7,2.4l-2.2-1.3v3.4c-0.8,0.9-1.6,1.8-2.4,2.7  c-1.9,2.9-2.2,6.4-0.9,10.6c0.3,1.1,1.9,4.5,4.9,10.3c1.7,3,4.3,7.5,7.7,13.7c2.1,3.7,4.3,6.9,6.3,9.6v1.4l2.2,1.3  c0.1,0.2,0.3,0.3,0.4,0.5c3.6,3.3,6.9,7.1,10,11.3v5.8l8.3,4.8c1.1,1.7,2.1,3.3,3,4.8c3.4,3.7,6,6.1,7.8,7.2  c2.6,1.7,4.9,2.1,6.8,1.1c0,0.7,0,2.4,0,5.2c0,2.1-0.1,3.9-0.3,5.2c-4.8,15.5-7.2,30.5-7.2,45c0,6.6,0.6,13,1.6,19.1l-3.8,9.4  l-128.1-73.5c0.7-3.5,1.1-7.1,1.4-10.8l2.8,1.6v-7.8L463,265c0-1.3,0-2.5,0-3.8l3.1,1.8v-7.8l-3.5-2c-0.1-1.3-0.2-2.7-0.3-4l3.2,1.8  v-7.7l-4.2-2.4c-0.1-0.9-0.3-1.9-0.4-2.8c-0.5-1.9-1-3.8-1.4-5.7v-4.2l-1.1-0.6c-0.3-1.5-0.6-2.9-0.9-4.3l8,4.6v-7.8l-1.6-0.9  l7.3-4.2v4.7l8.3,4.7v-7.8L474.2,213.2z M512.3,200.4v7.7l5.3,3.1v-7.8L512.3,200.4z M559.2,177.1c-1.2,0.7-2.3,1.3-3.3,2l-7.3-4.2  c1.1,0.1,2.3,0.2,3.5,0.4C554.4,175.7,556.7,176.3,559.2,177.1z M579.4,204.3v7.7l5.8,3.4v-7.7L579.4,204.3z M468.7,221.6v7.8  l4.9,2.9v-7.8L468.7,221.6z M461.6,229.2v7.7l4.1,2.4v-7.8L461.6,229.2z M480.7,236.4v-7.8l-4.9-2.8v7.8L480.7,236.4z M471.4,234.9  l-4.4-2.6v7.7l4.4,2.6V234.9z M472.5,243.2l9.2,5.4v-7.8l-9.2-5.3V243.2z M469.4,256.9v7.8l4.9,2.7v-7.8L469.4,256.9z M473.6,255.5  v-7.7l-5.6-3.2v7.7L473.6,255.5z M477,273l-9-5.3v7.8l9,5.2V273z M559.4,250.7v7.8l4,2.3V253L559.4,250.7z M567.6,263.3l17.6,10.2  v-7.8l-17.6-10.3V263.3z M543.9,253.5v7.8l7.2,4.3v-7.8L543.9,253.5z M554.2,247.9l-3.9-2.4v7.8l3.9,2.4V247.9z M546.8,278.4v7.8  l2.9,1.6V280L546.8,278.4z M552.2,281.5v7.8l2.9,1.8v-7.8L552.2,281.5z M549.2,268.2l-8.1-4.7v7.8l8.1,4.7V268.2z M559.4,281.8  l9.5,5.4v-7.8l-9.5-5.4V281.8z M565.2,273.6l6.6,3.8v-7.8l-6.6-3.8V273.6z M561.1,263.4l-6.6-3.8v7.8l6.6,3.8V263.4z M547,228.1  v-7.8l-3.8-2.1v7.8L547,228.1z M548.6,221.3v7.8l3.8,2.2v-7.8L548.6,221.3z M554.3,243.9l4.4,2.6v-7.8l-4.4-2.6V243.9z M545.5,231.2  l-4.6-2.7v7.8l4.6,2.7V231.2z M579.9,282l5.3,3.1v-7.8l-5.3-3V282z M532,211.8v7.8l3.8,2.1V214L532,211.8z M537.4,214.9v7.7l3.8,2.3  v-7.8L537.4,214.9z M512.3,219.7l16.6,9.6v-7.8l-16.6-9.6V219.7z M512.3,223.6v7.8l2.9,1.6v-7.8L512.3,223.6z M512.3,243l4.4,2.6  v-7.8l-4.4-2.6V243z M497.9,215.3v7.8l4.1,2.4v-7.7L497.9,215.3z M483,237.7l4.9,2.9v-7.8l-4.9-2.9V237.7z M493,243.5l9.1,5.2v-7.8  l-9.1-5.2V243.5z M502.1,229.3l-13.1-7.6v7.8l13.1,7.6V229.3z M502.1,252.6l-7.7-4.4v7.7l7.7,4.4V252.6z M484.9,262l17.2,10v-7.8  l-17.2-9.9V262z M496.7,280.4l5.4,3.1v-7.8l-5.4-3.1V280.4z M523.2,253.2l-10.9-6.3v7.8l10.9,6.3V253.2z M512.3,270.1v7.8l3.9,2.3  v-7.8L512.3,270.1z M527.5,267.3l-15.2-8.9v7.8l15.2,8.9V267.3z M512.3,293.3v7.7l9,5.2v-7.8L512.3,293.3z M517.2,292.4v-7.8  l-4.9-2.9v7.8L517.2,292.4z M537.4,292.3l9,5.2v-7.8l-9-5.2V292.3z M502.1,295.2v-7.8l-13.8-7.9v7.8L502.1,295.2z M585.2,289  l-9.2-5.3v7.7l9.2,5.4V289z M585.2,300.6l-19.8-11.4v7.8l19.8,11.4V300.6z M557.6,292.4l2.9,1.7v-7.8l-2.9-1.8V292.4z M548.6,298.8  l10.1,5.8v-7.8l-10.1-5.9V298.8z M551.5,312.2v-7.8l-6.5-3.8v7.8L551.5,312.2z M542.3,310.7v7.7l7.6,4.4V315L542.3,310.7z   M565.4,312.4v7.8l4.8,2.8v-7.8L565.4,312.4z M561,306l24.2,14v-7.8l-24.2-14V306z M565.9,332v-7.7l-11.2-6.5v7.7L565.9,332z   M570.5,334.8l14.7,8.4v-7.7l-14.7-8.5V334.8z M578.3,327.6l6.9,4v-7.8l-6.9-4V327.6z"></path>
<path class="st24" d="M454.7,130.6c1.1,0.1,2.2,0.2,3.3,0.3l-3.1,7.9v-6.5l-0.7-0.4L454.7,130.6z M454.9,130.3l0.6-1.5l2.8,1.6  l-0.1,0.2C457.1,130.5,456,130.4,454.9,130.3z M459.9,126.3v-2.7l-1.9-1.1l3.2-8l3.9,2.3l0,0l-1-0.5l-0.2-0.1l-0.1,0.1L459.9,126.3z   M453.1,139.1l1.4,0.8l-0.5,1.3L453.1,139.1z M461.5,283.4l128.1,73.5l-1,2.1L461,285.8C461.2,285,461.4,284.2,461.5,283.4z"></path>
<linearGradient id="SVGID_5_" gradientUnits="userSpaceOnUse" x1="483.4801" y1="152.877" x2="448.8763" y2="213.1158" gradientTransform="matrix(1 0 0 1 0 178)">
	<stop offset="8.627450e-02" style="stop-color:#D4F5FF"></stop>
	<stop offset="0.9765" style="stop-color:#A4DCEC"></stop>
</linearGradient>
<path class="st25" d="M406.6,348.3c0.1,0.1,0.2,0.3,0.2,0.4l6.7,3.7v0.1c0.8,0.4,1.6,0.4,2.3,0l6.6-3.8c0.1-0.1,0.2-0.2,0.2-0.4  c0-0.1-0.1-0.2-0.2-0.4l-6.6-3.7c-0.7-0.5-1.6-0.5-2.5,0l-6.5,3.7C406.8,348.1,406.7,348.2,406.6,348.3z M402.1,345.9l0.7,0.4  c0.9,0.3,1.7,0.3,2.4,0l6.7-3.8v0.1c0-0.1,0.1-0.2,0.1-0.3c0-0.1-0.1-0.2-0.4-0.2l-1-0.6c0.7-0.4,1.5-0.9,2.2-1.4l5.8,3.4  c0.8,0.4,1.5,0.4,2.2,0l6.6-3.8v0.1c0.2-0.2,0.3-0.3,0.3-0.4l-6.9-4.1c-0.1-0.1-0.2-0.1-0.3-0.1l2.4-1.4l3.7,2.2  c0.8,0.5,1.7,0.5,2.6,0l6.2-3.8c0.4-0.1,0.6-0.2,0.6-0.2c0-0.1-0.2-0.2-0.6-0.4l-4.2-2.5l5-2.9c1.1-0.8,2.1-1.7,3.1-2.5l1-0.6v0.2  c0.2-0.2,0.4-0.4,0.4-0.4l-0.3-0.2c0.6-0.6,1.2-1.1,1.8-1.7l1.6,0.9c0.8,0.4,1.6,0.4,2.5,0l2-1.4h0.4c0.2,0,0.3,0,0.3-0.1  c0.1-0.1,0.1-0.1,0.1-0.2l-3.9-2.3c1.7-1.9,3.3-3.9,4.8-6.1l84.7,48.5c4.8,2.8,8.4,5.2,10.8,7.2c1.9,1.5,3.1,2.9,3.5,4.1  c-0.2,0.4-0.6,0.8-1.2,1.1l-58.9,33.8c-3.3,1.9-9.6,0.6-18.7-3.8c-2.1-1.1-4.4-2.3-6.9-3.8l-81.1-46.5c2.4-0.6,4.8-1.2,7.1-1.9  l45,26.2c0.6,0.4,1.4,0.4,2.2,0l6.1-3.8c0.4,0,0.6,0,0.6-0.1l-0.3-0.4l-44-25.4C400,346.8,401.1,346.4,402.1,345.9z M417.6,354.5  l6.3,3.9c1,0.5,1.9,0.5,2.6,0l6.3-3.9c0.3,0,0.5,0,0.7-0.1c-0.1,0-0.4-0.1-0.7-0.3l-6.5-3.8c-0.6-0.4-1.5-0.4-2.4,0l-6.3,3.8  c-0.1,0.2-0.3,0.3-0.4,0.3c0.1,0.1,0.2,0.2,0.4,0.4V354.5z M448.2,324.4l6.1,3.8c1,0.6,2,0.6,2.8,0.1l-0.1,0.3l2.7-1.8v-0.1l0.2-0.1  c0-0.1-0.1-0.2-0.4-0.4l-6.5-3.6c-0.3-0.2-0.6-0.3-0.9-0.3c-0.4-0.1-0.7,0-1,0.1c-0.1,0.1-0.2,0.1-0.4,0.1l-2.4,1.3l-0.4,0.4  L448.2,324.4z M437,333.9l-6.3,4c-0.2,0.1-0.4,0.2-0.6,0.2c0.1,0.1,0.3,0.2,0.6,0.4v-0.3l6.3,3.9c0.8,0.3,1.6,0.3,2.5,0h-0.1  l6.5-3.9c0.2,0,0.4,0,0.4-0.1c0,0-0.1-0.1-0.1-0.2H446l-6.5-4h0.1C438.7,333.6,437.8,333.6,437,333.9z M451.4,329.1  c0-0.2-0.2-0.3-0.7-0.4l-6.4-3.8h0.3c-0.9-0.4-1.7-0.4-2.6,0l-6.7,3.8l-0.1,0.4l6.5,3.8c1,0.5,2,0.5,2.9,0h-0.3l6.7-3.6  C451.2,329.3,451.4,329.2,451.4,329.1z M445.4,335.1c0.1,0.1,0.3,0.2,0.5,0.3l6.6,3.9c0.8,0.3,1.6,0.3,2.6,0h-0.2l6.6-3.9v0.2  c0.2-0.1,0.3-0.3,0.3-0.4s-0.1-0.2-0.3-0.4l-6.6-3.8c-0.8-0.4-1.6-0.4-2.4,0l-6.6,3.8C445.8,335,445.6,335.1,445.4,335.1z   M422.1,345.5c0.2,0.1,0.3,0.3,0.4,0.4l6.7,3.7v0.1c0.8,0.4,1.5,0.4,2.1,0l6.8-3.8c0-0.1,0.1-0.2,0.3-0.4c-0.1,0-0.2,0-0.3-0.1  l-6.6-3.9c-0.7-0.4-1.5-0.4-2.3,0l-6.7,3.9C422.4,345.4,422.3,345.5,422.1,345.5z M433.1,352L433.1,352l6.4,3.6c1,0.5,1.8,0.5,2.4,0  l6.3-3.7c0.5-0.1,0.7-0.3,0.7-0.4l-0.4-0.4l-6.4-3.3c-0.8-0.6-1.7-0.6-2.7,0l-6.6,3.9L433.1,352z M447.7,340.1l-6.6,3.8  c0,0.1-0.1,0.2-0.2,0.2l7,4.1c0.8,0.4,1.6,0.4,2.4,0l6.4-3.9c0.2,0,0.4,0,0.4-0.1c0,0-0.2-0.1-0.4-0.2l-6.4-3.8  C449.4,339.7,448.5,339.7,447.7,340.1z M451.4,350.3l6.8,3.9c1.1,0.6,1.9,0.7,2.5,0.1l6.4-3.8h0.1c0.2-0.1,0.4-0.3,0.6-0.4  c-0.2,0-0.4,0-0.7-0.1l-6.4-3.8c-0.6-0.4-1.4-0.4-2.5,0l-6.3,3.8c-0.1,0-0.2,0.1-0.2,0.1C451.4,350.2,451.4,350.3,451.4,350.3z   M450.2,353.7l-6.5,3.6c-0.3,0.3-0.5,0.4-0.5,0.4c0,0.1,0.2,0.3,0.5,0.5v-0.1l6.5,3.7c0.5,0.3,1,0.4,1.4,0.4c0.3-0.1,0.6-0.2,1-0.4  l6.6-3.7v0.1c0.3-0.2,0.5-0.4,0.5-0.5l-7.1-4.1c-0.4-0.2-0.7-0.3-1-0.4C451.2,353.2,450.7,353.4,450.2,353.7z M470.7,333  c0-0.1-0.1-0.4-0.4-0.7l-6.3-3.6h0.1c-0.5-0.2-1-0.3-1.4-0.2c-0.3,0-0.5,0.1-0.7,0.1s-0.4,0.1-0.5,0.1l-2.6,1.4  c-0.1,0.2-0.3,0.4-0.5,0.4c0.2,0.2,0.4,0.3,0.5,0.3l6.6,3.8c0.9,0.5,1.7,0.5,2.4,0h-0.1l2.4-1.5l0.1-0.1v0.3L470.7,333L470.7,333z   M470,337.2l6.7,3.8c0.8,0.5,1.5,0.5,2.1,0l2.8-1.6h0.1l-0.1-0.1l-6.6-4.1c-0.3-0.1-0.7-0.2-1-0.2s-0.6,0-0.9,0.1  c-0.2,0-0.4,0-0.4,0.1l-2.7,1.5c-0.1,0.1-0.2,0.1-0.2,0.1C469.9,336.9,469.9,337.1,470,337.2L470,337.2z M463.1,337.2l-6.5,3.8  c-0.2,0.1-0.4,0.2-0.5,0.2c0.1,0,0.3,0.1,0.5,0.2v-0.1l6.5,3.9c0.9,0.4,1.7,0.4,2.4,0l6.6-3.9v0.1l0.2-0.2l-0.2-0.2h-0.3l-6.3-3.8  C464.8,336.8,464,336.8,463.1,337.2z M481.1,343.5l6.3,3.8c1,0.4,1.9,0.4,2.7,0v0.1l2.4-1.6l0.5-0.1l-0.5-0.4h-0.2l-6.2-3.8  c-0.5-0.2-0.9-0.3-1.3-0.2c-0.3,0-0.5,0-0.8,0.1c-0.2,0-0.4,0-0.4,0l-2.4,1.5c-0.3,0.3-0.5,0.4-0.5,0.4  C480.6,343.4,480.8,343.5,481.1,343.5z M467.2,346.8c0,0.3-0.1,0.5-0.2,0.5c0.1,0.1,0.2,0.2,0.2,0.4l6.5,3.7c0.9,0.3,1.6,0.3,2.3,0  l6.6-3.7v0.1c0.2-0.2,0.4-0.4,0.4-0.5l-7-4c-0.6-0.5-1.4-0.5-2.3,0L467.2,346.8z M470.2,352.1c-0.4,0-0.9,0.1-1.5,0.4l-6.3,3.5  c-0.2,0.2-0.3,0.3-0.4,0.3c0.1,0.1,0.2,0.2,0.4,0.4l6.3,3.7c0.5,0.2,1,0.4,1.5,0.4c0.4,0,0.8-0.2,1.1-0.4l6.3-3.7  c0.5-0.2,0.7-0.4,0.7-0.5l-7-3.9C470.9,352.2,470.6,352.1,470.2,352.1z M477.9,353.7l6.4,3.6c0.9,0.6,1.7,0.7,2.4,0.3l6.5-3.7v0.2  c0.3-0.3,0.4-0.5,0.4-0.6s-0.1-0.2-0.4-0.4l-6.5-3.6c-0.6-0.5-1.4-0.5-2.3,0l-6.4,3.6l-0.5,0.4L477.9,353.7z M495,347.8  c0,0.1-0.1,0.1-0.3,0.1l-2.4,1.6c-0.2,0.1-0.4,0.1-0.5,0.2c0.1,0,0.2,0.2,0.4,0.4V350l6.6,3.8c0.2,0.1,0.5,0.2,0.7,0.3  c0.6,0,1.2-0.1,1.7-0.3h-0.1l2.1-1.3l0.3-0.1v0.1c0.1-0.1,0.3-0.2,0.3-0.3c0.1-0.1,0.2-0.2,0.2-0.3l-6.9-4c-0.4-0.3-0.8-0.4-1.3-0.4  C495.5,347.6,495.3,347.7,495,347.8z M497.5,355.4c-0.9-0.4-1.8-0.4-2.6,0l-6.6,3.8c-0.2,0.2-0.4,0.4-0.5,0.4  c0.1,0.1,0.3,0.2,0.5,0.4l6.3,3.5c0.9,0.6,1.8,0.6,2.7,0l6.2-3.5c0.3-0.1,0.5-0.3,0.5-0.4l-0.4-0.4h-0.1L497.5,355.4L497.5,355.4z   M503.2,356.3l6.5,3.6v0.2c0.8,0.4,1.6,0.4,2.5,0l3-1.7l-7.1-4.1c-0.3-0.1-0.6-0.2-0.9-0.2c-0.2,0-0.4,0-0.7,0c-0.1,0-0.3,0-0.4,0.1  c-0.2,0-0.3,0-0.4,0.1l-2.4,1.6c-0.3,0.1-0.6,0.1-0.7,0.1C502.8,356.1,503,356.2,503.2,356.3z M533.7,373l2.7-1.6  c0.1-0.1,0.1-0.1,0.2-0.1c0.2-0.1,0.3-0.2,0.3-0.2c-0.1,0-0.4-0.1-0.8-0.4l-6.4-3.7h0.2c-0.4-0.2-0.8-0.3-1.1-0.3  c-0.4,0-0.8,0.1-1.1,0.3h-0.2l-2.4,1.4c-0.2,0.2-0.3,0.4-0.4,0.4c0.1,0.1,0.2,0.2,0.4,0.3l6.3,3.8C532.1,373.3,533,373.3,533.7,373z   M529.7,374.4l-11.7-6.9c-0.7-0.4-1.6-0.4-2.7,0l-6.1,3.8c-0.2,0-0.3,0.1-0.4,0.1c0.1,0.1,0.2,0.2,0.4,0.2l11.8,6.9v0.1  c0.7,0.3,1.6,0.3,2.5,0h-0.1l6.3-3.8c0.3-0.1,0.5-0.2,0.5-0.4L529.7,374.4z M525.8,365c0.1-0.1,0.2-0.2,0.2-0.3l-7.1-4.1  c-0.4-0.3-0.8-0.4-1.3-0.3c-0.2,0.1-0.4,0.1-0.6,0.3c-0.1,0-0.2,0.1-0.4,0.1l-2.6,1.6c-0.2,0.1-0.4,0.2-0.4,0.4c0,0,0.1,0.1,0.4,0.2  l6.6,3.7c0.8,0.5,1.7,0.5,2.6,0h-0.1l2.6-1.4C525.7,365,525.8,365,525.8,365z M514.3,365.4l-6.4-3.8c-0.6-0.3-1.2-0.4-1.7-0.3  c-0.2,0.1-0.4,0.1-0.7,0.3l-6.5,3.8c-0.1,0.1-0.3,0.2-0.5,0.2c0.2,0.1,0.4,0.1,0.5,0.1l6.5,3.9c0.2,0.1,0.5,0.2,0.7,0.3  c0.5,0.1,1.1,0,1.7-0.3l6.4-3.9c0.3,0,0.5,0,0.5-0.1c0,0-0.1-0.1-0.3-0.2H514.3z M519.6,380.2l-6.6-3.5c-0.8-0.5-1.6-0.5-2.4,0  l-6.6,3.5c-0.1,0.3-0.2,0.4-0.2,0.4c0,0.1,0.1,0.2,0.2,0.4l6.6,3.8c0.8,0.4,1.6,0.4,2.4,0l6.4-3.8h0.2c0.1-0.2,0.2-0.3,0.2-0.4  L519.6,380.2z M500.5,370.7l-6.9,3.8c0,0.2,0.1,0.4,0.4,0.5l6.6,3.8c0.8,0.5,1.6,0.5,2.5,0l6.2-3.8c0.3-0.1,0.6-0.3,0.7-0.5  c-0.1,0-0.3,0-0.5-0.1h-0.1l-6.2-3.8h0.1C502.2,370.3,501.3,370.3,500.5,370.7z M499,368.4l-6.5-3.8c-0.8-0.4-1.6-0.4-2.4,0  l-6.5,3.8c-0.2,0.2-0.3,0.3-0.4,0.3c0.1,0,0.2,0.1,0.4,0.1l6.5,3.9c0.8,0.5,1.6,0.5,2.4,0l6.5-3.9c0.1,0,0.3,0,0.4-0.1  C499.2,368.6,499.1,368.5,499,368.4z M488.9,362.5l-0.5-0.4l-6.6-3.7c-0.7-0.5-1.6-0.5-2.4,0l-6.3,3.7c-0.2,0.2-0.4,0.4-0.4,0.4  c0,0.1,0.2,0.1,0.4,0.1l6.3,3.7c0.8,0.6,1.6,0.6,2.4,0l6.4-3.7C488.6,362.7,488.9,362.7,488.9,362.5z M481.8,372l-6.6,4.1l0.4,0.4  l6.2,3.7c1,0.4,1.8,0.4,2.5,0l6.4-3.7c0.3-0.2,0.6-0.4,0.7-0.4c-0.2,0-0.3-0.1-0.4-0.1h-0.3l-6.2-3.9  C483.7,371.6,482.8,371.6,481.8,372z M492,378l-6.4,3.8c-0.2,0-0.4,0.1-0.5,0.1c0.1,0,0.3,0.1,0.5,0.2l15,8.6  c0.8,0.6,1.5,0.7,2.1,0.2v-0.2l6.6-3.5c0.1-0.2,0.3-0.3,0.4-0.3c-0.1,0-0.1,0-0.1-0.1c0,0-0.1-0.2-0.2-0.4l-14.8-8.5  C493.7,377.5,492.9,377.5,492,378z M499.1,392.3L478.8,381h0.1c-0.8-0.6-1.6-0.6-2.4,0l-6.4,3.6c-0.1,0.1-0.2,0.1-0.4,0.1  c0.1,0,0.3,0.1,0.4,0.3l0.1,0.1l19.9,11.6v0.1c0.9,0.4,1.7,0.4,2.4,0v-0.1l6.7-3.8v0.1c0.1-0.1,0.2-0.2,0.2-0.3  C499.3,392.7,499.3,392.5,499.1,392.3z M483.5,401.9l-6.9-4.1c-0.7-0.3-1.5-0.3-2.4,0l-2.3,1.5c-0.2,0.1-0.4,0.2-0.4,0.2  c0,0.1,0.3,0.2,0.7,0.2l6.4,3.8c0.6,0.5,1.3,0.5,2.1,0l2.4-1.4h0.1C483.4,402,483.5,401.9,483.5,401.9z M470.1,363.7l-6.8-3.8  c-0.8-0.5-1.6-0.5-2.4,0l-6.6,3.5c-0.1,0.1-0.2,0.2-0.3,0.2c0,0.2,0.2,0.3,0.4,0.4l6.5,3.7c0.8,0.5,1.6,0.6,2.4,0.1v-0.1l6.5-3.7  v0.1C470,364.1,470.1,363.9,470.1,363.7z M471.5,365.8l-6.6,3.9c-0.1,0.2-0.3,0.3-0.5,0.3c0.2,0.1,0.4,0.2,0.5,0.3l6.6,3.7  c0.8,0.4,1.5,0.4,2.1,0l6.6-3.7c0.3-0.1,0.4-0.2,0.4-0.4l-0.3-0.4l-6.7-3.7C473,365.5,472.3,365.5,471.5,365.8z M454,366.3l-6.3-3.7  h0.1c-1-0.3-1.8-0.2-2.5,0.1l-6.7,3.7c-0.2,0-0.4,0-0.4,0c0,0.1,0.2,0.3,0.5,0.5l6.6,3.7v0.1c0.7,0.5,1.5,0.5,2.5,0h-0.1l6.3-3.7  c0.2,0,0.4-0.2,0.4-0.4C454.4,366.5,454.3,366.4,454,366.3z M455.8,368.7l-6.6,3.9c-0.1,0.1-0.2,0.1-0.2,0.1c0,0.1,0.1,0.2,0.2,0.2  l6.6,3.9c0.8,0.4,1.6,0.4,2.3,0l7-3.9c0-0.1-0.2-0.3-0.7-0.4l-6.3-3.9C457.3,368.2,456.6,368.2,455.8,368.7z M466.3,382.9  c1,0.5,1.7,0.5,2.3,0l6.6-3.7c0.3-0.1,0.4-0.2,0.4-0.4l-7.1-3.9c-0.7-0.5-1.5-0.5-2.3,0l-6.5,3.7c0,0.1-0.1,0.2-0.2,0.2  c0.1,0.1,0.2,0.3,0.2,0.4L466.3,382.9z M456.2,380.3l-8.9-5.2c-0.7-0.5-1.5-0.5-2.4,0l-6.5,3.7l-0.3,0.2c0,0.1,0.1,0.2,0.4,0.3  l8.9,5.2c0.8,0.5,1.6,0.5,2.4,0l6.4-3.7v0.3l0.4-0.4L456.2,380.3z M452.9,385.5l-2.2,1.3c-0.2,0.1-0.4,0.1-0.5,0.1  c0.1,0.3,0.3,0.5,0.5,0.6l6.3,3.8v0.1c0.9,0.4,1.7,0.4,2.4,0v-0.1l2.3-1.4c0.3-0.1,0.4-0.3,0.4-0.5l-6.9-3.8  C454.5,385,453.7,385,452.9,385.5z M461.2,392.9c0.1,0.1,0.3,0.1,0.6,0.1l6.3,3.8v0.1c0.7,0.3,1.4,0.4,2,0.1c0.1,0,0.3-0.1,0.4-0.2  l2.1-1l-8.2-4.7l-2.7,1.3C461.5,392.7,461.3,392.9,461.2,392.9z M470.2,388.6c-0.6-0.3-1.3-0.2-2,0.3l-1.3,0.7l8.1,5l2.1-1.6h0.1  c0.1,0,0.3,0,0.4-0.1c-0.1,0-0.3-0.1-0.5-0.4l-6.5-3.6C470.4,388.7,470.3,388.6,470.2,388.6z M443.3,360.2l-6.3-3.8h0.1  c-0.9-0.3-1.8-0.2-2.7,0.1l-6.4,3.7l-0.4,0.4l0.4,0.1l6.3,3.8c0.9,0.5,1.7,0.5,2.5,0l6.3-3.8l0.7-0.1l-0.4-0.4L443.3,360.2  L443.3,360.2z"></path>
<path class="st26" d="M420.5,335.2c0.1,0,0.2,0.1,0.3,0.1l6.9,4.1c0,0-0.1,0.2-0.3,0.4v-0.1l-6.6,3.8c-0.7,0.4-1.4,0.4-2.2,0  l-5.8-3.4c1.3-0.8,2.5-1.7,3.7-2.6c0.4-0.3,0.9-0.6,1.3-1c0.6-0.2,1.1-0.5,1.6-0.7L420.5,335.2z M422.8,333.8l8.2-4.7l4.2,2.5  c0.4,0.1,0.6,0.3,0.6,0.4c0,0-0.2,0.1-0.6,0.2L429,336c-0.9,0.5-1.7,0.5-2.6,0L422.8,333.8z M439.2,323.7c0.4-0.3,0.7-0.6,1.1-1  l0.3,0.2c0,0.1-0.1,0.2-0.4,0.4v-0.2L439.2,323.7z M442.1,321.1c1-1,2-2,3-3.1l3.9,2.3c0,0.1,0,0.2-0.1,0.2s-0.2,0.1-0.3,0.1h-0.4  l-2,1.4c-0.9,0.4-1.7,0.4-2.5,0L442.1,321.1z M389.3,350.7c3.4-1,6.6-2.2,9.7-3.4l44,25.4l0.3,0.4c0,0-0.2,0.1-0.6,0.1l-6.1,3.8  c-0.8,0.4-1.6,0.4-2.2,0L389.3,350.7z M402.1,345.9c3-1.4,5.8-2.9,8.5-4.5l1,0.6c0.2,0,0.4,0.1,0.4,0.2c0,0,0,0.1-0.1,0.3v-0.1  l-6.7,3.8c-0.7,0.3-1.5,0.3-2.4,0L402.1,345.9z M406.6,348.3c0.1-0.1,0.2-0.2,0.2-0.4l6.5-3.7c0.9-0.5,1.8-0.5,2.5,0l6.6,3.7  c0.1,0.1,0.2,0.3,0.2,0.4s-0.1,0.3-0.2,0.4l-6.6,3.8c-0.7,0.4-1.5,0.4-2.3,0v-0.1l-6.7-3.7C406.8,348.6,406.7,348.5,406.6,348.3z   M417.6,354.5v0.2c-0.1-0.1-0.3-0.3-0.4-0.4c0.1,0,0.2-0.1,0.4-0.3l6.3-3.8c1-0.4,1.8-0.4,2.4,0l6.5,3.8c0.3,0.2,0.5,0.3,0.7,0.3  c-0.1,0.1-0.4,0.1-0.7,0.1l-6.3,3.9c-0.7,0.5-1.6,0.5-2.6,0L417.6,354.5z M477.9,353.7l-0.5-0.1l0.5-0.4l6.4-3.6  c0.9-0.5,1.6-0.5,2.3,0l6.5,3.6c0.3,0.1,0.4,0.3,0.4,0.4s-0.1,0.3-0.4,0.6V354l-6.5,3.7c-0.6,0.4-1.4,0.3-2.4-0.3L477.9,353.7z   M470.2,352.1c0.4,0,0.8,0.1,1.1,0.3l7,3.9c0,0.1-0.2,0.3-0.7,0.5l-6.3,3.7c-0.3,0.2-0.7,0.3-1.1,0.4c-0.4,0-0.9-0.1-1.5-0.4  l-6.3-3.7c-0.2-0.2-0.3-0.3-0.4-0.4c0.1,0,0.2-0.1,0.4-0.3l6.3-3.5C469.2,352.2,469.7,352.1,470.2,352.1z M467.2,346.8l6.5-3.5  c0.9-0.5,1.6-0.5,2.3,0l7,4c0,0.1-0.1,0.3-0.4,0.5v-0.1l-6.6,3.7c-0.6,0.3-1.4,0.3-2.3,0l-6.5-3.7c0-0.2-0.1-0.3-0.2-0.4  C467,347.3,467.1,347.1,467.2,346.8z M481.1,343.5c-0.3,0-0.5,0-0.5-0.1c0,0,0.2-0.1,0.5-0.4l2.4-1.5c0,0,0.2,0,0.4,0  c0.2-0.1,0.5-0.1,0.8-0.1c0.4,0,0.8,0,1.3,0.2l6.2,3.8h0.2l0.5,0.4l-0.5,0.1l-2.4,1.6v-0.1c-0.8,0.4-1.7,0.4-2.7,0L481.1,343.5z   M463.1,337.2c0.9-0.4,1.7-0.4,2.4,0l6.3,3.8h0.3l0.2,0.2l-0.2,0.2v-0.1l-6.6,3.9c-0.7,0.4-1.6,0.4-2.4,0l-6.5-3.9v0.1  c-0.2-0.1-0.4-0.2-0.5-0.2c0.1,0,0.3-0.1,0.5-0.2L463.1,337.2z M470,337.2v0.1c-0.1-0.2-0.2-0.4-0.2-0.5c0.1,0,0.1,0,0.2-0.1  l2.7-1.5c0-0.1,0.2-0.1,0.4-0.1c0.3-0.1,0.6-0.1,0.9-0.1s0.7,0.1,1,0.2l6.6,4.1l0.1,0.1h-0.1l-2.8,1.6c-0.6,0.5-1.4,0.5-2.1,0  L470,337.2z M470.7,333L470.7,333l-0.4,0.3V333l-0.1,0.1l-2.4,1.5h0.1c-0.7,0.5-1.6,0.5-2.4,0l-6.6-3.8c-0.1,0-0.3-0.1-0.5-0.3  c0.2,0,0.4-0.1,0.5-0.4l2.6-1.4c0.1,0,0.3,0,0.5-0.1s0.4-0.1,0.7-0.1c0.4,0,0.9,0,1.4,0.2H464l6.3,3.6  C470.6,332.6,470.7,332.8,470.7,333z M450.2,353.7c0.5-0.3,1-0.4,1.4-0.4c0.3,0,0.6,0.2,1,0.4l7.1,4.1c0,0.1-0.2,0.3-0.5,0.5v-0.1  l-6.6,3.7c-0.4,0.2-0.7,0.3-1,0.4c-0.4,0-0.9-0.1-1.4-0.4l-6.5-3.7v0.1c-0.3-0.2-0.5-0.4-0.5-0.5c0,0,0.2-0.1,0.5-0.4L450.2,353.7z   M451.4,350.3c0-0.1,0.1-0.1,0.3-0.1c0.1,0,0.1,0,0.2-0.1l6.3-3.8c1.1-0.4,1.9-0.4,2.5,0l6.4,3.8c0.2,0,0.5,0.1,0.7,0.1  c-0.2,0.1-0.4,0.2-0.6,0.4h-0.1l-6.4,3.8c-0.6,0.5-1.4,0.5-2.5-0.1L451.4,350.3z M447.7,340.1c0.9-0.4,1.7-0.4,2.5,0l6.4,3.8  c0.2,0.1,0.4,0.2,0.4,0.2c0,0.1-0.2,0.1-0.4,0.1l-6.4,3.9c-0.8,0.4-1.6,0.4-2.4,0l-7-4.1c0.1,0,0.2-0.1,0.2-0.2L447.7,340.1z   M433.1,352l-0.3-0.3l6.6-3.9c1-0.6,1.9-0.6,2.7,0l6.4,3.3l0.4,0.4c0,0.1-0.2,0.2-0.7,0.4l-6.3,3.7c-0.6,0.5-1.5,0.5-2.4,0  L433.1,352L433.1,352z M422.1,345.5c0.2,0,0.3,0,0.4-0.1l6.7-3.9c0.8-0.4,1.6-0.4,2.3,0l6.6,3.9c0,0.1,0.1,0.1,0.3,0.1  c-0.1,0.1-0.2,0.3-0.3,0.4l-6.8,3.8c-0.6,0.4-1.4,0.4-2.1,0v-0.1l-6.7-3.7C422.4,345.7,422.3,345.6,422.1,345.5z M445.4,335.1  c0.1,0,0.3-0.1,0.5-0.2l6.6-3.8c0.8-0.4,1.6-0.4,2.4,0l6.6,3.8c0.2,0.1,0.3,0.3,0.3,0.4s-0.1,0.2-0.3,0.4v-0.2l-6.6,3.9h0.2  c-0.9,0.3-1.8,0.3-2.6,0l-6.6-3.9C445.8,335.3,445.6,335.2,445.4,335.1z M451.4,329.1c0,0-0.1,0.1-0.4,0.2l-6.7,3.6h0.3  c-0.9,0.5-1.8,0.5-2.9,0l-6.5-3.8l0.1-0.4l6.7-3.8c0.8-0.4,1.7-0.4,2.6,0h-0.3l6.4,3.8C451.1,328.8,451.4,329,451.4,329.1z   M437,333.9c0.8-0.2,1.6-0.2,2.5,0h-0.1l6.5,4h0.3c0,0.1,0.1,0.2,0.1,0.2c0,0.1-0.2,0.1-0.4,0.1l-6.5,3.9h0.1  c-0.9,0.3-1.7,0.3-2.5,0l-6.3-3.9v0.3c-0.2-0.2-0.4-0.3-0.6-0.4c0.1,0,0.3-0.1,0.6-0.2L437,333.9z M448.2,324.4l-0.4-0.1l0.4-0.4  l2.4-1.3c0.2,0,0.3,0,0.4-0.1c0.3-0.1,0.6-0.1,1-0.1c0.3,0,0.6,0.1,0.9,0.3l6.5,3.6c0.3,0.1,0.4,0.3,0.4,0.4l-0.2,0.1v0.1l-2.7,1.8  l0.1-0.3c-0.8,0.5-1.8,0.5-2.8-0.1L448.2,324.4z M499.5,319.5l-0.4-0.3h0.4V319.5z M503.2,356.3c-0.2-0.1-0.3-0.2-0.4-0.2  c0.1,0,0.3,0,0.7-0.1l2.4-1.6c0-0.1,0.2-0.1,0.4-0.1c0.1,0,0.2-0.1,0.4-0.1c0.2,0,0.5-0.1,0.7,0c0.3,0,0.6,0.1,0.9,0.2l7.1,4.1  l-3,1.7c-0.9,0.4-1.7,0.4-2.5,0V360L503.2,356.3z M497.5,355.4L497.5,355.4l6.1,3.8h0.1l0.4,0.4c0,0.1-0.2,0.2-0.5,0.4l-6.2,3.5  c-0.9,0.6-1.8,0.6-2.7,0l-6.3-3.5c-0.2-0.1-0.4-0.3-0.5-0.4c0.1,0,0.3-0.1,0.5-0.4l6.6-3.8C495.7,355,496.6,355,497.5,355.4z   M495,347.8c0.3-0.1,0.5-0.2,0.8-0.2c0.5,0,0.9,0.1,1.3,0.4l6.9,4c0,0.1-0.1,0.2-0.2,0.3c-0.1,0.1-0.2,0.2-0.3,0.3v-0.1l-0.3,0.1  l-2.1,1.3h0.1c-0.5,0.2-1.1,0.3-1.7,0.3c-0.2,0-0.5-0.1-0.7-0.3l-6.6-3.8v0.1c-0.1-0.2-0.3-0.4-0.4-0.4c0.1-0.1,0.3-0.2,0.5-0.2  l2.4-1.6C494.8,348,494.9,347.9,495,347.8z M483.5,401.9c0,0-0.1,0.1-0.3,0.3h-0.1l-2.4,1.4c-0.7,0.5-1.4,0.5-2.1,0l-6.4-3.8  c-0.4,0-0.6-0.1-0.7-0.2c0,0,0.2-0.1,0.4-0.2l2.3-1.5c0.9-0.3,1.7-0.3,2.4,0L483.5,401.9z M499.1,392.3c0.1,0.1,0.2,0.3,0.2,0.5  c0,0.1-0.1,0.2-0.2,0.3V393l-6.7,3.8v0.1c-0.6,0.4-1.4,0.4-2.4,0v-0.1l-19.9-11.6l-0.1-0.1c-0.1-0.1-0.2-0.2-0.4-0.3  c0.1,0,0.3,0,0.4-0.1l6.4-3.6c0.8-0.6,1.6-0.6,2.4,0h-0.1L499.1,392.3z M492,378c0.9-0.4,1.7-0.4,2.4,0l14.8,8.5  c0.1,0.2,0.2,0.3,0.2,0.4l0.1,0.1c-0.1,0-0.2,0.1-0.4,0.3l-6.6,3.5v0.2c-0.6,0.5-1.4,0.4-2.1-0.2l-15-8.6c-0.2-0.1-0.4-0.2-0.5-0.2  c0.1,0,0.3,0,0.5-0.1L492,378z M481.8,372c1-0.3,1.9-0.3,2.7,0l6.2,3.9h0.3c0.1,0.1,0.3,0.1,0.4,0.1c-0.2,0-0.4,0.1-0.7,0.4  l-6.4,3.7c-0.7,0.4-1.5,0.4-2.5,0l-6.2-3.7l-0.4-0.4L481.8,372z M488.9,362.5c0,0.1-0.2,0.2-0.7,0.2l-6.4,3.7  c-0.8,0.6-1.6,0.6-2.4,0l-6.3-3.7c-0.2,0-0.4,0-0.4-0.1c0,0,0.2-0.2,0.4-0.4l6.3-3.7c0.9-0.5,1.7-0.5,2.4,0l6.6,3.7L488.9,362.5z   M499,368.4c0.1,0.2,0.3,0.3,0.4,0.3c-0.1,0-0.2,0.1-0.4,0.1l-6.5,3.9c-0.8,0.5-1.6,0.5-2.4,0l-6.5-3.9c-0.2,0-0.3,0-0.4-0.1  c0.1,0,0.2-0.1,0.4-0.3l6.5-3.8c0.8-0.4,1.6-0.4,2.4,0L499,368.4z M500.5,370.7c0.9-0.4,1.8-0.4,2.7-0.1h-0.1l6.2,3.8h0.1  c0.2,0.1,0.4,0.1,0.5,0.1c-0.1,0.2-0.3,0.4-0.7,0.5l-6.2,3.8c-0.9,0.5-1.7,0.5-2.5,0l-6.6-3.8c-0.3-0.1-0.4-0.3-0.4-0.5L500.5,370.7  z M519.6,380.2l0.2,0.4c0,0.1-0.1,0.2-0.2,0.4h-0.2l-6.4,3.8c-0.8,0.4-1.6,0.4-2.4,0L504,381c-0.1-0.2-0.2-0.3-0.2-0.4  c0,0,0.1-0.1,0.2-0.4l6.6-3.5c0.8-0.5,1.6-0.5,2.4,0L519.6,380.2z M514.3,365.4h0.2c0.1,0.1,0.2,0.2,0.3,0.2c0,0.1-0.2,0.1-0.5,0.1  l-6.4,3.9c-0.6,0.3-1.2,0.4-1.7,0.3c-0.2-0.1-0.4-0.2-0.7-0.3l-6.5-3.9c-0.1,0-0.3,0-0.5-0.1c0.2,0,0.4-0.1,0.5-0.2l6.5-3.8  c0.2-0.1,0.5-0.2,0.7-0.3c0.5-0.1,1.1,0,1.7,0.3L514.3,365.4z M525.8,365L525.8,365l-2.7,1.4h0.1c-0.9,0.5-1.7,0.5-2.6,0l-6.6-3.7  c-0.2-0.1-0.4-0.2-0.4-0.2c0-0.1,0.1-0.3,0.4-0.4l2.6-1.6c0.1,0,0.3,0,0.4-0.1c0.2-0.1,0.4-0.2,0.6-0.3c0.4-0.1,0.8,0,1.3,0.3  l7.1,4.1C526,364.8,525.9,364.9,525.8,365z M529.7,374.4l0.5,0.1c0,0.1-0.2,0.3-0.5,0.4l-6.3,3.8h0.1c-0.9,0.3-1.8,0.3-2.5,0v-0.1  l-11.8-6.9c-0.2,0-0.3-0.1-0.4-0.2c0.1,0,0.2,0,0.4-0.1l6.1-3.8c1.1-0.4,2-0.4,2.7,0L529.7,374.4z M533.7,373  c-0.8,0.3-1.6,0.3-2.5-0.1L525,369c-0.2-0.1-0.3-0.2-0.4-0.3c0.1,0,0.2-0.1,0.4-0.4l2.4-1.4h0.2c0.4-0.2,0.8-0.3,1.1-0.3  c0.4,0,0.8,0.1,1.1,0.3h-0.2l6.4,3.7c0.4,0.2,0.7,0.4,0.8,0.4c-0.1,0-0.2,0.1-0.3,0.2c0,0-0.1,0.1-0.2,0.1L533.7,373z M443.3,360.2  h0.2l0.4,0.4l-0.7,0.1l-6.3,3.8c-0.8,0.5-1.6,0.5-2.5,0l-6.3-3.8l-0.4-0.1l0.4-0.4l6.4-3.7c0.9-0.4,1.8-0.4,2.7-0.1H437L443.3,360.2  z M470.2,388.6c0.1,0,0.3,0.1,0.4,0.3l6.5,3.6c0.2,0.2,0.4,0.4,0.5,0.4c-0.1,0.1-0.3,0.1-0.4,0.1H477l-2.1,1.6l-8.1-5l1.3-0.7  C468.9,388.4,469.6,388.3,470.2,388.6z M461.2,392.9c0.1,0,0.3-0.1,0.5-0.4l2.7-1.3l8.2,4.7l-2.1,1c-0.1,0.1-0.2,0.2-0.4,0.2  c-0.6,0.3-1.3,0.3-2-0.1v-0.1l-6.3-3.8C461.5,393,461.3,393,461.2,392.9z M452.9,385.5c0.8-0.4,1.6-0.4,2.4,0l6.9,3.8  c0,0.2-0.1,0.4-0.4,0.5l-2.3,1.4v0.1c-0.7,0.4-1.6,0.4-2.4,0v-0.1l-6.3-3.8c-0.2-0.1-0.4-0.3-0.5-0.6c0.1,0,0.3,0,0.5-0.1  L452.9,385.5z M456.2,380.3l0.4,0.4l-0.4,0.4v-0.3l-6.4,3.7c-0.7,0.5-1.5,0.5-2.4,0l-8.9-5.2c-0.3-0.1-0.4-0.2-0.4-0.3l0.3-0.2  l6.5-3.7c0.9-0.5,1.7-0.5,2.4,0L456.2,380.3z M466.3,382.9l-6.5-3.7c0-0.1-0.1-0.2-0.2-0.4c0.1,0,0.2-0.1,0.2-0.2l6.5-3.7  c0.8-0.5,1.6-0.5,2.3,0l7.1,3.9c0,0.1-0.1,0.3-0.4,0.4l-6.6,3.7C468,383.4,467.3,383.4,466.3,382.9z M455.8,368.7  c0.8-0.5,1.6-0.5,2.3,0l6.3,3.9c0.4,0.1,0.7,0.2,0.7,0.4l-7,3.9c-0.7,0.4-1.5,0.4-2.3,0l-6.6-3.9c-0.1,0-0.2-0.1-0.2-0.2  c0,0,0.1,0,0.2-0.1L455.8,368.7z M454,366.3c0.2,0.1,0.4,0.2,0.4,0.4c0,0.2-0.1,0.3-0.4,0.4l-6.3,3.7h0.1c-1,0.5-1.8,0.5-2.5,0v-0.1  l-6.6-3.7c-0.3-0.2-0.5-0.4-0.5-0.5c0,0,0.2,0,0.4,0l6.7-3.7c0.7-0.4,1.5-0.4,2.5-0.1h-0.1L454,366.3z M471.5,365.8  c0.8-0.3,1.5-0.3,2.1,0l6.7,3.7l0.3,0.4c0,0.2-0.1,0.3-0.4,0.4l-6.6,3.7c-0.6,0.4-1.4,0.4-2.1,0l-6.6-3.7c-0.1-0.1-0.3-0.2-0.5-0.3  c0.2,0,0.4-0.1,0.5-0.3L471.5,365.8z M470.1,363.7c0,0.2-0.1,0.4-0.3,0.6v-0.1l-6.5,3.7v0.1c-0.8,0.5-1.6,0.5-2.4-0.1l-6.5-3.7  c-0.2-0.1-0.4-0.2-0.4-0.4c0,0,0.1-0.1,0.3-0.2l6.6-3.5c0.8-0.5,1.6-0.5,2.4,0L470.1,363.7z"></path>
<linearGradient id="SVGID_6_" gradientUnits="userSpaceOnUse" x1="334.6199" y1="162.651" x2="549.327" y2="162.651" gradientTransform="matrix(1 2.000000e-04 0 1 0 178.1991)">
	<stop offset="0.2118" style="stop-color:#29C1ED"></stop>
	<stop offset="0.3569" style="stop-color:#B3E4F2"></stop>
</linearGradient>
<path class="st27" d="M451.1,310.2l83.5,47.9c4.8,2.8,8.4,5.2,10.8,7.2c3.3,2.8,4.5,4.9,3.5,6.4c-0.5-1.2-1.7-2.5-3.5-4.1  c-2.4-2.1-6-4.5-10.8-7.2l-84.7-48.5C450.3,311.3,450.7,310.8,451.1,310.2z"></path>
<linearGradient id="SVGID_7_" gradientUnits="userSpaceOnUse" x1="337.0596" y1="198.7809" x2="420.7118" y2="198.9509" gradientTransform="matrix(1 0 0 1 0 178)">
	<stop offset="0.3804" style="stop-color:#5FCBE3"></stop>
	<stop offset="0.4627" style="stop-color:#A8EFFF"></stop>
</linearGradient>
<path class="st28" d="M420,391.9c-0.5-0.6-1.4-1.3-2.6-2c-0.2-0.1-0.4-0.2-0.7-0.4l-38.3-22c-4.3-2.4-7.5-3-9.7-1.8l-30.6,17.6  c-1.4-1.3-1.4-2.4,0-3.2l30.6-17.6c2.2-1.2,5.5-0.6,9.7,1.8l38.3,22.1c0.2,0.1,0.5,0.2,0.7,0.4C421.1,389.1,422,390.8,420,391.9z"></path>
<linearGradient id="SVGID_8_" gradientUnits="userSpaceOnUse" x1="416.8729" y1="209.7367" x2="342.5968" y2="209.596" gradientTransform="matrix(1 0 0 1 0 178)">
	<stop offset="8.627450e-02" style="stop-color:#D4F5FF"></stop>
	<stop offset="0.9765" style="stop-color:#A4DCEC"></stop>
</linearGradient>
<path class="st29" d="M338.1,383.4l30.6-17.6c2.2-1.2,5.5-0.6,9.7,1.8l38.3,22c0.2,0.1,0.5,0.3,0.7,0.4c1.2,0.7,2,1.4,2.6,2l0,0  l-30.6,17.6c-2.2,1.1-5.4,0.5-9.7-1.9l-38.4-22C339.9,384.8,338.8,384.1,338.1,383.4z"></path>
<g id="magnyfying_glass_1_">
	<path class="st30" d="M192.9,436.3h-5.8c-0.8-0.6-1.8-1.3-2.8-1.8c-11.4-6.6-29.9-6.6-41.2-0.1c-1.1,0.6-2,1.3-2.9,1.9h-5.6v10l0,0   c0,4.3,2.9,8.6,8.6,11.9c11.4,6.6,29.9,6.6,41.2,0.1c5.7-3.3,8.5-7.6,8.5-11.9l0,0V436.3z"></path>
	
		<ellipse transform="matrix(5.421873e-03 -1 1 5.421873e-03 -273.2882 597.6443)" class="st31" cx="163.8" cy="436.2" rx="16.8" ry="29.1"></ellipse>
	
		<ellipse transform="matrix(5.421873e-03 -1 1 5.421873e-03 -273.2882 597.6443)" class="st32" cx="163.8" cy="436.2" rx="12.7" ry="22"></ellipse>
	<path class="st33" d="M174.7,444.1c-0.3,0-0.7-0.2-0.8-0.5c-0.2-0.5-0.1-1,0.4-1.3c0.2-0.1,0.4-0.2,0.6-0.3   c2.7-1.5,4.2-3.5,4.2-5.6c0-0.5,0.5-1,1-0.9c0.5,0,0.9,0.5,0.9,1c-0.1,2.8-1.9,5.3-5.2,7.2c-0.2,0.1-0.4,0.3-0.7,0.4   C175,444.1,174.8,444.1,174.7,444.1z"></path>
	<path class="st33" d="M149.1,433.1c-0.2,0-0.4-0.1-0.6-0.2c-0.4-0.3-0.5-0.9-0.1-1.3c0.9-1.1,2-2,3.5-2.9c3.3-1.9,7.7-2.9,12.3-2.8   c0.5,0,0.9,0.4,0.9,1c0,0.5-0.4,0.9-1,0.9c-4.2-0.1-8.4,0.9-11.4,2.6c-1.2,0.7-2.2,1.5-2.9,2.4C149.7,433,149.4,433.1,149.1,433.1z   "></path>
	<path class="st33" d="M147.7,436.6C147.6,436.6,147.6,436.6,147.7,436.6c-0.6-0.1-1-0.5-0.9-1c0-0.5,0.2-1.1,0.4-1.6   s0.7-0.8,1.2-0.6c0.5,0.2,0.8,0.7,0.6,1.2c-0.1,0.4-0.2,0.8-0.3,1.2C148.6,436.2,148.1,436.6,147.7,436.6z"></path>
	<path class="st30" d="M188.1,449.5L188.1,449.5l-0.1-0.1l0,0c-0.7-0.3-1.6-0.3-2.6,0.3c-2.1,1.2-3.7,4.1-3.7,6.4   c0,1.2,0.4,2,1.1,2.4l0,0l25.5,14.8l5.2-9.1L188.1,449.5z"></path>
	
		<ellipse transform="matrix(0.5047 -0.8633 0.8633 0.5047 -300.2943 414.2216)" class="st31" cx="210.8" cy="468.8" rx="5.2" ry="3"></ellipse>
</g>
<g id="key_1_">
	<path class="st34" d="M314.7,475.3C314.7,475.2,314.7,475.2,314.7,475.3c0-2.6-1.7-5.2-5.1-7.1s-7.8-2.9-12.2-2.9   c-4.4,0-8.8,1-12.2,2.9c-3.3,1.9-4.9,4.3-5,6.8l0,0v6.5l0,0c0,2.6,1.7,5.1,5.1,7.1c6.7,3.9,17.6,3.9,24.3,0c3.3-1.9,5-4.5,5-7   c0,0,0,0,0-0.1v-6.2L314.7,475.3L314.7,475.3z M291.1,478.3c0.1-0.1,0.3-0.2,0.4-0.3c3.3-1.9,8.6-1.9,11.9,0   c0.2,0.1,0.3,0.2,0.5,0.3c-0.1,0.1-0.3,0.2-0.4,0.3c-3.3,1.9-8.6,1.9-11.9,0C291.4,478.5,291.3,478.4,291.1,478.3z"></path>
	<path class="st35" d="M314.7,475.2c0-2.5-1.7-5.1-5.1-7s-7.8-2.9-12.2-2.9c-4.4,0-8.8,1-12.2,2.9c-6.7,3.9-6.7,10.2,0.1,14.1   c6.7,3.9,17.6,3.9,24.3,0C313.1,480.3,314.7,477.7,314.7,475.2z M291.6,478.6c-3.3-1.9-3.3-5,0-6.9s8.6-1.9,11.9,0s3.3,5,0,6.9   S294.9,480.5,291.6,478.6z"></path>
	<path class="st34" d="M314,481.2c-0.5-0.3-1.3-0.3-2.1,0.2c-1.6,0.9-2.9,3.2-2.9,5.1c0,0.9,0.3,1.6,0.8,1.9l0,0l46.8,26.3l4.1-7.2   L314,481.2z"></path>
	
		<ellipse transform="matrix(0.5047 -0.8633 0.8633 0.5047 -263.5589 562.8638)" class="st35" cx="358.7" cy="511.1" rx="4.1" ry="2.4"></ellipse>
	<polygon class="st34" points="341.1,502.7 332.4,507.7 332.4,510.6 335.9,512.6 338.8,510.9 339.8,511.5 345.4,511.5 345.4,513    343.5,514.1 343.5,517 346.4,518.7 355.1,513.6 355.1,510.8  "></polygon>
	<polygon class="st35" points="355.1,510.8 346.4,515.8 343.5,514.1 346.3,512.4 345.4,511.9 345.4,508.7 339.8,508.7 338.8,508.1    335.9,509.7 332.4,507.7 341.1,502.7  "></polygon>
</g>
<g id="charts">
	<path class="st36" d="M73.6,325.4C73.8,325.4,73.8,325.4,73.6,325.4L73.6,325.4z"></path>
	<path class="st36" d="M77.6,326.2c0.1,0,0.1,0,0.2,0C77.7,326.2,77.6,326.2,77.6,326.2L77.6,326.2z"></path>
	<path class="st36" d="M82.8,327.1c-0.1,0-1.4-0.2-1.5-0.2C81.5,326.9,82.6,327,82.8,327.1z"></path>
	<path class="st36" d="M76.9,326.1c-1-0.2-3.2-0.7-3.3-0.7C73.9,325.5,75.7,325.8,76.9,326.1z"></path>
	<path class="st36" d="M76.9,326.1C77.4,326.2,77.6,326.2,76.9,326.1L76.9,326.1z"></path>
	<path class="st36" d="M77.8,326.2c0,0-0.3,0-0.3-0.1C77.8,326.2,78.2,326.3,77.8,326.2z"></path>
	<path class="st37" d="M47.4,371.8l-31.9-18.4c-2.4-1.4-2.1-3.8,0.7-5.4l30.3-17.5c2.8-1.6,7-1.8,9.4-0.4l31.9,18.4   c2.4,1.4,2.1,3.8-0.7,5.4l-30.3,17.5C54,373,49.8,373.2,47.4,371.8z"></path>
	<path class="st37" d="M98.5,343.5l-31.9-18.4c-2.4-1.4-2.1-3.8,0.7-5.4l30.3-17.5c2.8-1.6,7-1.8,9.4-0.4l31.9,18.4   c2.4,1.4,2.1,3.8-0.7,5.4l-30.3,17.5C105.1,344.7,100.9,344.9,98.5,343.5z"></path>
	<path class="st37" d="M149.8,312.7l-31.9-18.4c-2.4-1.4-2.1-3.8,0.7-5.4l30.3-17.5c2.8-1.6,7-1.8,9.4-0.4l31.9,18.4   c2.4,1.4,2.1,3.8-0.7,5.4l-30.3,17.5C156.4,313.9,152.2,314.1,149.8,312.7z"></path>
	
		<linearGradient id="SVGID_9_" gradientUnits="userSpaceOnUse" x1="41.2566" y1="165.2784" x2="61.7528" y2="165.6144" gradientTransform="matrix(1 0 0 1 0 178)">
		<stop offset="0" style="stop-color:#EAEFF5"></stop>
		<stop offset="0.9932" style="stop-color:#DEE1F0"></stop>
	</linearGradient>
	<path class="st38" d="M87.1,338.8c0-0.1,0-0.2,0-0.3v-11.6H11.6v12c0,0.9,0.5,1.7,1.6,2.3l31.9,18.4c2.4,1.4,6.6,1.2,9.4-0.4   l30.3-17.5c1.4-0.8,2.2-1.8,2.3-2.8l0,0C87.1,338.9,87.1,338.8,87.1,338.8z"></path>
	<path class="st33" d="M45.1,347.8l-31.9-18.4c-2.4-1.4-2.1-3.8,0.7-5.4l30.3-17.5c2.8-1.6,7-1.8,9.4-0.4l31.9,18.4   c2.4,1.4,2.1,3.8-0.7,5.4l-30.3,17.5C51.7,349,47.5,349.2,45.1,347.8z"></path>
	
		<linearGradient id="SVGID_10_" gradientUnits="userSpaceOnUse" x1="114.3" y1="80.4181" x2="189.7066" y2="80.4181" gradientTransform="matrix(1 0 0 1 0 178)">
		<stop offset="0" style="stop-color:#EAEFF5"></stop>
		<stop offset="0.9932" style="stop-color:#DEE1F0"></stop>
	</linearGradient>
	<path class="st39" d="M189.7,279.1c0-0.1,0-0.2,0-0.3V216h-75.4v63.2c0,0.9,0.5,1.7,1.6,2.3l31.9,18.4c2.4,1.4,6.6,1.2,9.4-0.4   l30.3-17.5c1.4-0.8,2.2-1.8,2.3-2.8l0,0L189.7,279.1L189.7,279.1z"></path>
	<path class="st33" d="M147.8,236.9l-31.9-18.4c-2.4-1.4-2.1-3.8,0.7-5.4l30.3-17.5c2.8-1.6,7-1.8,9.4-0.4l31.9,18.4   c2.4,1.4,2.1,3.8-0.7,5.4l-30.3,17.5C154.4,238.1,150.2,238.3,147.8,236.9z"></path>
	
		<linearGradient id="SVGID_11_" gradientUnits="userSpaceOnUse" x1="65" y1="121.5181" x2="140.4067" y2="121.5181" gradientTransform="matrix(1 0 0 1 0 178)">
		<stop offset="0" style="stop-color:#EAEFF5"></stop>
		<stop offset="0.9932" style="stop-color:#DEE1F0"></stop>
	</linearGradient>
	<path class="st40" d="M140.4,307.5c0-0.1,0-0.2,0-0.3v-37.3H65v37.6c0,0.9,0.5,1.7,1.6,2.3l31.9,18.4c2.4,1.4,6.6,1.2,9.4-0.4   l30.3-17.5c1.4-0.8,2.2-1.8,2.3-2.8l0,0l0,0L140.4,307.5L140.4,307.5z"></path>
	<path class="st33" d="M98.5,290.9l-31.9-18.4c-2.4-1.4-2.1-3.8,0.7-5.4l30.3-17.5c2.8-1.6,7-1.8,9.4-0.4l31.9,18.4   c2.4,1.4,2.1,3.8-0.7,5.4l-30.3,17.5C105.1,292.1,100.9,292.3,98.5,290.9z"></path>
	<g>
		
			<linearGradient id="SVGID_12_" gradientUnits="userSpaceOnUse" x1="11779.7979" y1="155.4242" x2="11740.7441" y2="131.8604" gradientTransform="matrix(-1 0 0 1 11805.3213 178)">
			<stop offset="0" style="stop-color:#00C1F8"></stop>
			<stop offset="1" style="stop-color:#0274EE"></stop>
		</linearGradient>
		<path class="st41" d="M33.2,321.4c3.1-1.8,3.8,1.8,7.9-0.6c3.6-2.1,4.8-9.8,8.6-12c1.8-1.1,3.2-0.3,5,0.4c1.8,0.8,4,1.6,7.4,0.7    c0.5-0.1,1.1-0.3,1.7-0.6l2.1,1.2v8.6L52.3,327l-6.6,3.8L32,338.7l-4.3,2.5l-2.1-1.2v-5.4C28.5,332.9,28.6,324,33.2,321.4z"></path>
		
			<linearGradient id="SVGID_13_" gradientUnits="userSpaceOnUse" x1="11739.4033" y1="147.3161" x2="11777.543" y2="147.3161" gradientTransform="matrix(-1 0 0 1 11805.3213 178)">
			<stop offset="0" style="stop-color:#00C1F8"></stop>
			<stop offset="1" style="stop-color:#0274EE"></stop>
		</linearGradient>
		<path class="st42" d="M27.8,335.8v5.4l4.3-2.5l13.7-7.9l6.6-3.8l13.6-7.9v-8.6c-0.6,0.2-1.2,0.4-1.7,0.6c-3.4,1-5.6,0.1-7.4-0.7    c-1.8-0.8-3.1-1.5-5-0.4c-3.8,2.2-5,9.9-8.6,12c-4.1,2.3-4.8-1.2-7.9,0.6C30.8,325.2,30.7,334.2,27.8,335.8z"></path>
		<polygon class="st43" points="27.8,335.8 25.6,334.6 25.6,340 27.8,341.2   "></polygon>
		
			<linearGradient id="SVGID_14_" gradientUnits="userSpaceOnUse" x1="11779.2393" y1="161.1733" x2="11742.6582" y2="136.6207" gradientTransform="matrix(-1 0 0 1 11805.3213 178)">
			<stop offset="0" style="stop-color:#F73E69"></stop>
			<stop offset="1" style="stop-color:#FF82A3"></stop>
		</linearGradient>
		<path class="st44" d="M28.3,337.1c7.7-4.2,6.7-10.2,10.6-12.5c1.1-0.7,1.8-0.6,2.5-0.2l0,0l0,0c0,0,0,0,0.1,0l1.8,1.1l0,0    c0.5,0.2,0.9,0.6,1.3,1c1,0.2,2.3,0.1,4.1-0.8c5.4-2.7,5.8-11,8-15.3c0.5-1,1.1-1.9,2-2.3c0.9-0.5,1.8-0.4,2.6,0.1l0,0l0,0    l0.1,0.1l2,1.2l0,0c0.9,0.6,1.8,1.6,2.7,2.9c0.6,0.8,1.1,1.8,1.7,2.7v5.3l-38.1,22l-2.1-1.3v-3.8C28,337.3,28.1,337.2,28.3,337.1z    "></path>
		
			<linearGradient id="SVGID_15_" gradientUnits="userSpaceOnUse" x1="11760.4658" y1="135.685" x2="11754.2344" y2="158.7643" gradientTransform="matrix(-1 0 0 1 11805.3213 178)">
			<stop offset="0" style="stop-color:#F73E69"></stop>
			<stop offset="1" style="stop-color:#FF82A3"></stop>
		</linearGradient>
		<path class="st45" d="M29.9,338.7v3.8l38.1-22v-5.3c-0.6-1-1.1-1.9-1.7-2.7c-1.7-2.5-3.5-4.1-5.4-3c-0.8,0.5-1.4,1.3-2,2.3    c-2.2,4.3-2.6,12.6-8,15.3c-6.7,3.3-6-3.5-9.9-1.2s-3,8.3-10.6,12.5C30.3,338.5,30.1,338.6,29.9,338.7z"></path>
		<polygon class="st46" points="27.8,337.4 29.9,338.7 29.9,342.5 27.8,341.2   "></polygon>
	</g>
	<g>
		
			<linearGradient id="SVGID_16_" gradientUnits="userSpaceOnUse" x1="129.5961" y1="85.4578" x2="80.41" y2="88.9859" gradientTransform="matrix(1 0 0 1 0 178)">
			<stop offset="0" style="stop-color:#00C1F8"></stop>
			<stop offset="1" style="stop-color:#0274EE"></stop>
		</linearGradient>
		<path class="st47" d="M127.2,267.8v-4.1l0,0v-0.1c0-8.5-12-15.3-26.6-15.4c-14.6,0-26.5,6.8-26.4,15.3v4.2h6    c0-6.5,9.1-11.8,20.5-11.8c10.1,0,18.6,4.3,20.3,9.8c-1.4,4.5-7.3,8.2-15,9.3v4.2l1.5,3.3C118.8,280.9,127.2,275,127.2,267.8    L127.2,267.8L127.2,267.8L127.2,267.8L127.2,267.8z"></path>
		<g>
			<path class="st48" d="M100.6,251.7c11.3,0,20.6,5.3,20.6,11.9c0,5.5-6.5,10.1-15.3,11.4l1.5,3.3c11.4-1.7,19.8-7.7,19.7-14.8     c0-8.5-12-15.3-26.6-15.4c-14.6,0-26.5,6.8-26.4,15.3h6C80.1,257,89.3,251.7,100.6,251.7z"></path>
		</g>
		<polygon class="st49" points="74.2,263.6 80.2,263.6 80.2,267.7 74.2,267.7   "></polygon>
		<polygon class="st49" points="106,275.1 106,279.3 107.5,282.6 107.5,278.4   "></polygon>
		<path class="st50" d="M100.6,251.7c-11.3,0-20.5,5.2-20.5,11.8l0,0v4.2l0,0l0,0c0,1.3,0.4,2.6,1.1,3.8l5.3-1v-4.2    c-0.1-0.2-0.2-0.5-0.3-0.7c1.6-3.8,7.5-6.5,14.5-6.5c6.5,0,12,2.4,14.1,5.7l5.2-1.1v-4.2C117.1,255,109.5,251.8,100.6,251.7z"></path>
		<path class="st51" d="M100.6,251.7c-11.3,0-20.5,5.3-20.5,11.8c0,1.3,0.4,2.6,1.1,3.8l5.3-1c-0.5-0.9-0.8-1.8-0.8-2.7    c0-4.8,6.7-8.6,14.9-8.6c6.5,0,12,2.4,14.1,5.7l5.2-1.1C117.1,255,109.5,251.8,100.6,251.7z"></path>
		<path class="st52" d="M81.2,267.3"></path>
		<polygon class="st50" points="81.2,267.3 81.2,271.5 86.5,270.5 86.5,266.3   "></polygon>
		<polygon class="st50" points="114.8,260.7 114.8,264.9 120,263.8 120,259.6   "></polygon>
	</g>
	<g>
		
			<linearGradient id="SVGID_17_" gradientUnits="userSpaceOnUse" x1="132.0441" y1="33.458" x2="174.045" y2="33.458" gradientTransform="matrix(1 0 0 1 0 178)">
			<stop offset="0" style="stop-color:#00C1F8"></stop>
			<stop offset="1" style="stop-color:#0274EE"></stop>
		</linearGradient>
		<path class="st53" d="M132,208.3c1.2-6.7,11.6-11.5,23.1-10.9c10.9,0.6,19,5.9,18.9,12.1l0,0v3.9l0,0c0,0.4,0,0.8-0.1,1.2    c-1.2,6.7-11.5,11.6-23.1,10.9v-3.9l1.5-8.3l-20.3-1.1L132,208.3L132,208.3z"></path>
		
			<linearGradient id="SVGID_18_" gradientUnits="userSpaceOnUse" x1="169.6029" y1="40.5466" x2="133.541" y2="14.8662" gradientTransform="matrix(1 0 0 1 0 178)">
			<stop offset="0" style="stop-color:#00C1F8"></stop>
			<stop offset="1" style="stop-color:#0274EE"></stop>
		</linearGradient>
		<path class="st54" d="M150.8,221.6l2.2-12.1l-21-1.2c1.2-6.7,11.6-11.6,23.1-10.9c11.6,0.7,20,6.6,18.8,13.3    C172.7,217.4,162.4,222.3,150.8,221.6z"></path>
		
			<linearGradient id="SVGID_19_" gradientUnits="userSpaceOnUse" x1="131.2" y1="36.2" x2="152.2698" y2="36.2" gradientTransform="matrix(1 0 0 1 0 178)">
			<stop offset="0" style="stop-color:#F73E69"></stop>
			<stop offset="1" style="stop-color:#FF82A3"></stop>
		</linearGradient>
		<path class="st55" d="M131.2,208.2L131.2,208.2c0-0.4,0-0.8,0.1-1.2l0,0l21,1.2v3.9l-13.7,9.3c-4.6-2.2-7.4-5.6-7.4-9.2l0,0    L131.2,208.2L131.2,208.2z"></path>
		<g>
			<g>
				
					<linearGradient id="SVGID_20_" gradientUnits="userSpaceOnUse" x1="131.1966" y1="34.25" x2="152.2662" y2="34.25" gradientTransform="matrix(1 0 0 1 0 178)">
					<stop offset="0" style="stop-color:#F73E69"></stop>
					<stop offset="1" style="stop-color:#FF82A3"></stop>
				</linearGradient>
				<path class="st56" d="M138.6,217.5c-5.1-2.5-8-6.3-7.3-10.5l0,0l21,1.2L138.6,217.5z"></path>
			</g>
		</g>
		
			<linearGradient id="SVGID_21_" gradientUnits="userSpaceOnUse" x1="138.558" y1="36.8" x2="152.2495" y2="36.8" gradientTransform="matrix(1 0 0 1 0 178)">
			<stop offset="0" style="stop-color:#F73E69"></stop>
			<stop offset="1" style="stop-color:#FF82A3"></stop>
		</linearGradient>
		<polygon class="st57" points="138.6,217.5 138.6,221.4 152.2,212.1 152.2,208.2   "></polygon>
		<path class="st50" d="M151.4,210.7v3.9l-2.2,12.1l0,0c-4.4-0.2-8.4-1.3-11.5-2.8V220L151.4,210.7z"></path>
		<path class="st51" d="M149.2,222.8L149.2,222.8l2.2-12.1l-13.7,9.3C140.9,221.5,144.8,222.5,149.2,222.8z"></path>
		<polygon class="st58" points="149.2,222.8 149.2,226.7 151.4,214.6 151.4,210.7   "></polygon>
	</g>
</g>
<g>
	<path class="st59" d="M311.4,31.2c1.7,0.5,3.3,1,4.9,1.4c13.1,3.3,25.5,4.2,37.2,2.5l-19,10.9c-5.9,0.9-12,1.1-18.2,0.7   c-1.6-0.1-3.3-0.2-4.9-0.4c-17.6-2-36.6-9-57.1-20.8c-1-0.6-1.9-1.1-2.9-1.7c-0.2-0.1-0.3-0.2-0.5-0.3c-1.2-0.8-2.5-1.6-3.7-2.4   l2-1.1c0,0.1,0.1,0.1,0.1,0.1c0.1,0,0.1,0.1,0.2,0.1c0.1,0,0.1,0,0.2-0.1l0.3-0.2c0.1,0,0.1-0.1,0.1-0.2s0-0.1,0-0.2v-0.1l16.2-9.3   C282.2,19.9,297.2,26.9,311.4,31.2z M346.8,325.2c23.9,0.5,43.2-2.7,57.9-9.5c0.5-0.2,0.9-0.4,1.4-0.7c-0.1,0.1-0.2,0.2-0.4,0.3   c-12.6,9.4-30.3,14.8-53,16.2l-6.8,0.3c-3.2,0.1-6.5,0.1-9.9,0L346.8,325.2z"></path>
	<path class="st60" d="M382.2,352.6c-13.6,3.2-29.5,4.7-47.7,4.4c-12.4-14-23.7-27.6-34-40.8C257,260.3,232.3,211,226.4,168.4   c-0.1-0.5-0.2-1.1-0.2-1.6c-1.8-14.4-1.5-28,1-40.9c8.5-22.8,8.5-49.4,0-79.6l20-25.3c1.2,0.8,2.5,1.6,3.7,2.4   c0.2,0.1,0.3,0.2,0.5,0.3c1,0.6,1.9,1.1,2.9,1.7c20.5,11.8,39.5,18.8,57.1,20.8c1.7,0.2,3.3,0.3,4.9,0.4c6.3,0.4,12.3,0.2,18.2-0.7   c16.9,21.8,35.3,40.1,55.2,54.9c0.5,0.4,1.1,0.8,1.6,1.2c9.9,7.2,20.1,13.6,30.7,19.1l19.9,48.3c-0.2,0.5-0.4,1-0.6,1.5   c-0.8,2.1-1.5,4.3-2.2,6.5c-0.2,0.8-0.5,1.6-0.7,2.5c-0.9,3.6-1.6,7.4-2.1,11.4c-0.3,2.4-0.5,4.9-0.6,7.4c-0.1,1.3-0.1,2.5-0.1,3.8   c0,2.6,0,5.2,0.1,7.8c0.1,1.3,0.1,2.6,0.2,4c0.2,2.7,0.5,5.4,0.8,8.2c0.2,1.4,0.4,2.8,0.6,4.2c0.4,2.8,0.9,5.7,1.5,8.6   c0.3,1.5,0.6,2.9,0.9,4.4c0.7,2.9,1.4,5.9,2.2,9c0,0.1,0,0.1,0,0.2c0.2,1.4,0.4,2.7,0.6,4c0.4,2.8,0.7,5.6,1,8.3   c0.4,4.2,0.6,8.2,0.6,12.1c0,0.9,0,1.8,0,2.7c0,3.8-0.3,7.5-0.7,11.1c-0.7,5.9-1.8,11.5-3.4,16.7c-0.2,0.7-0.4,1.3-0.7,2   c-0.8,2.4-1.8,4.8-2.8,7.1c-0.4,0.9-0.9,1.9-1.4,2.8c-0.5,1-1.1,2-1.7,3c-1.4,2.4-2.9,4.6-4.6,6.8c-0.6,0.7-1.2,1.4-1.8,2.1   c-1.7,2-3.5,3.8-5.4,5.6c-0.7,0.7-1.4,1.3-2.2,1.9c-0.5,0.5-1.1,0.9-1.7,1.4c-0.4,0.4-0.9,0.7-1.3,1c-1.2,0.9-2.4,1.8-3.7,2.6   c-0.7,0.5-1.4,0.9-2.2,1.4c-2.7,1.6-5.5,3.1-8.5,4.5c-1,0.5-2.1,0.9-3.2,1.4c-3.1,1.3-6.3,2.4-9.7,3.4   C387,351.4,384.6,352,382.2,352.6z M265.3,48.8l0.2-0.3c-1.2-0.8-2.5-1.6-3.7-2.4l-0.2,0.3c-0.1-0.1-0.2-0.1-0.3-0.2l-17.1,21.6   c7.2,25.6,7.2,48.2,0,67.6c-1.3,6.6-1.9,13.5-1.8,20.6c0,0.6,0,1.1,0,1.7c0.4,16.4,4.4,34,11.9,52.9c11.6,29.4,31.9,61.8,60.7,97.2   c6.4,7.8,13.2,15.8,20.5,24c0.2,0,0.3,0,0.5,0c3.4,0.1,6.7,0.1,9.9,0l6.8-0.3c22.7-1.4,40.4-6.8,53-16.2c0.1-0.1,0.3-0.2,0.4-0.3   c-0.5,0.2-0.9,0.4-1.4,0.7c0.2-0.1,0.3-0.2,0.5-0.4c0.1-0.1,0.2-0.2,0.4-0.3c0.2-0.2,0.5-0.4,0.7-0.6c0.5-0.4,1-0.8,1.4-1.2   c2.2-1.8,4.2-3.8,6.1-5.9c0.5-0.6,1-1.2,1.5-1.8c0.4-0.5,0.8-1,1.1-1.5c1.9-2.6,3.6-5.4,5.1-8.4c0.3-0.6,0.6-1.2,0.9-1.8   c2.2-4.8,3.8-10.2,4.8-15.9c0.6-3.4,1-7,1.2-10.7c0.1-0.9,0.1-1.7,0.1-2.6c0.2-7.4-0.4-15.4-1.7-24c0-0.2-0.1-0.3-0.1-0.4   c-1.9-7.2-3.3-14.1-4.2-20.7c-0.3-2.3-0.6-4.5-0.8-6.6c-0.7-7.3-0.6-14.1,0-20.4c0.8-7.3,2.4-13.9,4.9-19.9l-12-29.2l-4.9-11.9   c-6.7-3.5-13.2-7.3-19.5-11.6c-0.3-0.2-0.5-0.3-0.8-0.5c-6-4.1-11.9-8.5-17.6-13.4c-0.4-0.4-0.9-0.7-1.3-1.1   c-12.5-10.7-24.2-23.2-35.2-37.4c-6.2,0.9-12.6,1-19.2,0.3c-1.6-0.2-3.3-0.4-4.9-0.7c-13.5-2.3-27.9-7.8-43.3-16.6   c-0.3-0.1-0.5-0.3-0.7-0.4l0,0C266.6,49.5,266,49.1,265.3,48.8z"></path>
	
		<linearGradient id="SVGID_22_" gradientUnits="userSpaceOnUse" x1="242.4586" y1="-53.2" x2="335.5253" y2="-53.2" gradientTransform="matrix(1 0 0 1 0 178)">
		<stop offset="5.098040e-02" style="stop-color:#0B44BE"></stop>
		<stop offset="0.7765" style="stop-color:#327CED"></stop>
	</linearGradient>
	<path class="st61" d="M335.5,67.4v91.3c-27.1,9.6-50.8,23.7-71.1,42.1c-6.7-17.8-10.3-34.4-10.7-49.9c0-0.5,0-1.1,0-1.7   c-0.1-7,0.5-13.8,1.8-20.4c7.2-19.4,7.2-42,0-67.6l9.8-12.4c0.6,0.4,1.3,0.7,1.9,1.1l0,0c0.2,0.1,0.5,0.3,0.7,0.4   c15.4,8.8,29.8,14.4,43.3,16.6c1.7,0.3,3.3,0.5,4.9,0.7C322.9,68.4,329.3,68.3,335.5,67.4z"></path>
	<path class="st62" d="M335.5,331.8c-7.2-8.2-14.1-16.2-20.5-24c-28.8-35.5-49-67.9-60.7-97.2c-7.5-18.9-11.5-36.6-11.9-52.9   c0-0.6,0-1.1,0-1.7c-0.1-7.1,0.6-14,1.8-20.6c7.2-19.4,7.2-41.9,0-67.6l17.1-21.6c0.1,0.1,0.2,0.1,0.3,0.2l0.2-0.3   c1.2,0.8,2.5,1.6,3.7,2.4l-0.2,0.3l-9.8,12.4c7.2,25.6,7.2,48.2,0,67.6c-1.3,6.6-1.9,13.4-1.8,20.4c0,0.6,0,1.1,0,1.7   c0.4,15.5,3.9,32.2,10.7,49.9c12.6,33.2,36.3,70.3,71.1,111.4c3.6,4.3,7.4,8.6,11.3,13l-10.8,6.6c-0.2-0.2-0.3-0.4-0.5-0.6   L335.5,331.8L335.5,331.8z M457.7,168.8c-0.6,2.2-1.1,4.5-1.5,6.9c-0.2,1.2-0.4,2.4-0.6,3.6c-0.3,2.4-0.5,4.8-0.7,7.3   c-0.5,8.6,0,17.9,1.4,27.9c0.4,2.8,0.9,5.7,1.4,8.6c0.3,1.4,0.6,2.9,0.9,4.3c0.3,1.6,0.7,3.2,1.1,4.8c0.4,1.9,0.9,3.8,1.4,5.7   c0.1,0.9,0.3,1.9,0.4,2.8c0.4,2.8,0.7,5.6,1,8.3c0.1,1.4,0.2,2.7,0.3,4c0.2,2.7,0.3,5.4,0.4,8c0,1.3,0,2.6,0,3.8   c0,2.6-0.1,5.1-0.3,7.6c-0.3,3.8-0.8,7.4-1.4,10.8c-0.2,0.8-0.3,1.6-0.5,2.4c-0.7,3.4-1.7,6.7-2.8,9.9c-1.9,5.3-4.2,10.1-7.1,14.5   c-0.4,0.6-0.7,1.1-1.1,1.7c-1.5,2.1-3.1,4.1-4.8,6.1c-1,1.1-2,2.1-3,3.1c-0.6,0.6-1.2,1.1-1.8,1.7c-0.3,0.3-0.7,0.6-1.1,1   c-1,0.9-2.1,1.7-3.1,2.5l-5,2.9l-8.2,4.7l-2.4,1.4l-1,0.6c-0.5,0.2-1,0.4-1.6,0.7c0.6-0.4,1.1-0.9,1.7-1.4c0.7-0.6,1.5-1.3,2.2-1.9   c1.9-1.8,3.7-3.6,5.4-5.6c0.6-0.7,1.2-1.4,1.8-2.1c1.7-2.2,3.2-4.4,4.6-6.8c0.6-1,1.1-2,1.7-3c0.5-0.9,0.9-1.8,1.4-2.8   c1.1-2.3,2-4.6,2.8-7.1c0.2-0.7,0.5-1.3,0.7-2c1.6-5.2,2.7-10.8,3.4-16.7c0.4-3.6,0.6-7.3,0.7-11.1c0-0.9,0-1.8,0-2.7   c0-3.9-0.2-7.9-0.6-12.1c-0.3-2.7-0.6-5.5-1-8.3c-0.2-1.3-0.4-2.7-0.6-4c0-0.1,0-0.1,0-0.2c-0.8-3.1-1.5-6.1-2.2-9   c-0.3-1.5-0.6-3-0.9-4.4c-0.6-2.9-1.1-5.8-1.5-8.6c-0.2-1.4-0.4-2.8-0.6-4.2c-0.3-2.8-0.6-5.5-0.8-8.2c-0.1-1.3-0.2-2.7-0.2-4   c-0.1-2.7-0.2-5.3-0.1-7.8c0-1.3,0-2.6,0.1-3.8c0.1-2.5,0.3-5,0.6-7.4c0.5-3.9,1.2-7.7,2.1-11.4c0.2-0.8,0.4-1.7,0.7-2.5   c0.6-2.2,1.4-4.4,2.2-6.5c0.2-0.5,0.4-1,0.6-1.5l19.1-11.1l0.1,0.1C459.7,161.7,458.6,165.2,457.7,168.8z"></path>
	<path class="st63" d="M422,121.2c-10.6-5.5-20.8-11.9-30.7-19.1c-0.5-0.4-1.1-0.8-1.6-1.2c-19.9-14.8-38.3-33.1-55.2-54.9l19-10.9   c0.1,0,0.2-0.1,0.2-0.1c19.5,25.2,41,45.7,64.5,61.6c0.6,0.4,1.2,0.8,1.8,1.2c6.8,4.5,13.8,8.7,21,12.4L422,121.2z"></path>
	
		<linearGradient id="SVGID_23_" gradientUnits="userSpaceOnUse" x1="335.5" y1="-65" x2="428.6407" y2="-65" gradientTransform="matrix(1 0 0 1 0 178)">
		<stop offset="5.098040e-02" style="stop-color:#001FB3"></stop>
		<stop offset="0.8" style="stop-color:#0058D5"></stop>
	</linearGradient>
	<path class="st64" d="M414.8,143.2c-29.1,1.8-55.5,6.9-79.3,15.4V67.4c11,14.2,22.7,26.7,35.2,37.4c0.4,0.4,0.9,0.7,1.3,1.1   c5.7,4.8,11.6,9.3,17.6,13.4c0.3,0.2,0.5,0.3,0.8,0.5c6.3,4.3,12.8,8.1,19.5,11.6L414.8,143.2z"></path>
	
		<linearGradient id="SVGID_24_" gradientUnits="userSpaceOnUse" x1="242.4586" y1="57.45" x2="335.5252" y2="57.45" gradientTransform="matrix(1 0 0 1 0 178)">
		<stop offset="5.098040e-02" style="stop-color:#0034A4"></stop>
		<stop offset="0.7961" style="stop-color:#0045AE"></stop>
	</linearGradient>
	<path class="st65" d="M335.5,158.7v153.5c-34.8-41.1-58.5-78.2-71.1-111.4C284.7,182.3,308.4,168.3,335.5,158.7z"></path>
	
		<linearGradient id="SVGID_25_" gradientUnits="userSpaceOnUse" x1="335.5" y1="59.55" x2="428.7377" y2="59.55" gradientTransform="matrix(1 0 0 1 0 178)">
		<stop offset="5.098040e-02" style="stop-color:#001888"></stop>
		<stop offset="0.7961" style="stop-color:#0048AE"></stop>
	</linearGradient>
	<path class="st66" d="M335.5,312.1V158.7c23.8-8.5,50.2-13.7,79.3-15.4l12,29.2c-2.5,6-4.1,12.6-4.9,19.9c-0.7,6.3-0.7,13.1,0,20.4   c0.2,2.2,0.5,4.4,0.8,6.6c0.9,6.5,2.3,13.4,4.2,20.7c0,0.1,0,0.3,0.1,0.4c1.3,8.6,1.9,16.6,1.7,24c0,0.9-0.1,1.7-0.1,2.6   c-0.2,3.7-0.6,7.3-1.2,10.7c-1,5.8-2.6,11.1-4.8,15.9c-0.3,0.6-0.6,1.2-0.9,1.8c-1.5,3-3.2,5.8-5.1,8.4c-0.4,0.5-0.8,1-1.1,1.5   c-0.5,0.6-1,1.2-1.5,1.8c-1.8,2.1-3.9,4.1-6.1,5.9c-0.5,0.4-0.9,0.8-1.4,1.2c-0.2,0.2-0.5,0.4-0.7,0.6c-0.1,0.1-0.3,0.2-0.4,0.3   c-0.2,0.1-0.3,0.2-0.5,0.4c-14.7,6.8-34,10-57.9,9.5C342.9,320.8,339.2,316.4,335.5,312.1z M335.5,331.8v-0.6   c0.2,0.2,0.3,0.4,0.5,0.6C335.9,331.8,335.7,331.8,335.5,331.8z"></path>
	<polygon class="st67" points="450.9,133.8 453.1,139.1 453.9,141.2 455.6,145.1 459.3,154.3 461,158.4 441.9,169.4 422,121.2    441.1,110.2 441.2,110.2 442.6,113.6 446.7,123.7 448.1,127.1 449.2,129.8 449.4,130.2  "></polygon>
	<g>
		<path class="st68" d="M320.5,139.4c-0.8,0.3-1.6,0.7-2.3,1.2l0,0c-1.7,0.9-3.1,2-4.2,3.5c-1.7,2.1-2.8,4.8-3.3,8    c-0.2,1.5-0.4,3.1-0.4,4.9v9.2v0.2c0.3-0.2,0.5-0.4,0.7-0.6c1.7-1.6,2.8-4.7,3.3-9.3c0.2-0.6,0.3-1.3,0.5-1.9    c0.2-0.6,0.4-1.1,0.5-1.7c1-2.6,2.4-4.4,4.2-5.4c2.5-1.3,5.7-1,9.8,0.7c0.8,0.3,1.7,0.7,2.5,1.2c4.5,2.7,8.4,6.7,11.8,12.2    c0.2,0.3,0.3,0.5,0.5,0.8c2.3,4.1,3.9,8,4.7,11.9c0.3,1.7,0.5,3.5,0.5,5.2v8.3v8.7c0,0.1,0,0.3,0,0.4c0.1,1,0.5,1.9,1.3,2.7    s1.8,1.2,3,1.2c1,0,1.9-0.3,2.7-1c0.1-0.1,0.2-0.2,0.3-0.3c0.8-0.8,1.2-1.7,1.3-2.7c0-0.1,0-0.2,0-0.3v-3.7V185v-5.4v-0.1    c0-3.4-0.5-6.9-1.5-10.4c-0.9-3.1-2.2-6.2-3.9-9.3c-0.9,1-2.1,1.5-3.5,1.5c-1.8,0-4.3-1.8-7.4-5.5c-3-3.9-4.8-6-5.3-6.4    c-2.1-1.6-4.2-2.8-6.5-3.7c-1.1-0.4-2.8-0.8-5-1.3c-1.6-0.3-2.7-0.7-3.2-1.1c-0.8-0.6-1.2-1.7-1.2-3.3    C320.5,139.7,320.5,139.5,320.5,139.4z"></path>
		<path class="st69" d="M352.5,159.5c-0.1-0.1-0.1-0.2-0.2-0.3l-0.6-1.2c-0.1-0.1-0.1-0.1-0.1-0.1c-1.5-2.6-3.1-5-4.9-7.1    c-3.1-3.8-6.6-6.8-10.5-9c-0.2-0.1-0.3-0.2-0.5-0.3c-0.1,0-0.1-0.1-0.2-0.1l-0.1-0.1c-0.1,0-0.1,0-0.2,0s-0.1-0.1-0.1-0.1    c-0.1-0.1-0.2-0.1-0.3-0.2c-0.1,0-0.2-0.1-0.2-0.1c-3.3-1.7-6.3-2.5-9.1-2.5h-0.1h-0.1h-0.1l-4.4,0.8c-0.1,0-0.2,0.1-0.3,0.1    c0,0.1,0,0.3,0,0.4c0,1.6,0.4,2.7,1.2,3.3c0.5,0.4,1.6,0.8,3.2,1.1c2.2,0.4,3.9,0.9,5,1.3c2.3,0.8,4.4,2,6.5,3.7    c0.6,0.4,2.3,2.6,5.3,6.4c3.1,3.7,5.6,5.5,7.4,5.5C350.4,161,351.6,160.5,352.5,159.5z"></path>
		<path class="st70" d="M321.7,148.5c0.2-0.2,0.5-0.4,0.8-0.6l0,0c2-1,4.3-1,7,0.1c-4.1-1.7-7.3-2-9.8-0.7c-1.9,1-3.3,2.8-4.2,5.4    c-0.2,0.6-0.4,1.1-0.5,1.7c-0.2,0.6-0.4,1.3-0.5,1.9c-0.5,4.6-1.6,7.7-3.3,9.3c-0.2,0.2-0.5,0.4-0.7,0.6v1.8v3.5v4.1    c0,0.1,0,0.2,0,0.4c0.1,1,0.5,1.9,1.2,2.6c0.8,0.8,1.8,1.3,3,1.3s2.2-0.4,3-1.3c0.3-0.3,0.5-0.5,0.7-0.8c0.3-0.6,0.5-1.2,0.6-1.8    c0-0.1,0-0.2,0-0.3V171v-9.2v-4.9v-0.1c0-2.9,0.6-5.1,1.7-6.8C320.9,149.4,321.3,148.9,321.7,148.5z"></path>
		<path class="st71" d="M364,200.1c0.1-0.4,0.2-0.7,0.3-1.1c0-0.1,0-0.2,0-0.3c0-1.4-0.7-2.7-2.2-3.7c-0.3-0.2-0.6-0.4-0.9-0.6    l-3.2-1.8v3.7c0,0.1,0,0.2,0,0.3c0.6,0.5,0.9,1,0.9,1.7c0,0.8-0.4,1.4-1.3,2c-0.1,0-0.1,0.1-0.2,0.1c-1,0.6-2.2,0.9-3.6,0.9    s-2.6-0.3-3.6-0.9c-1-0.6-1.5-1.3-1.5-2.1c0-0.6,0.3-1.1,0.8-1.6c0-0.1,0-0.2,0-0.4v-8.7l-26.2-15.1c-1.3-0.7-2.7-1.2-4.3-1.5v4.7    c0,0.1,0,0.2,0,0.3c0.6,0.5,0.9,1,0.9,1.7c0,0.3-0.1,0.6-0.2,0.9c-0.2,0.5-0.7,0.9-1.3,1.2c-1,0.6-2.2,0.9-3.6,0.8    c-1.4,0-2.6-0.3-3.6-0.8c-1-0.6-1.5-1.3-1.5-2.1c0-0.6,0.3-1.1,0.8-1.6c0-0.1,0-0.3,0-0.4v-4.1c-0.6,0.2-1.1,0.4-1.7,0.7    c-0.2,0.1-0.3,0.2-0.5,0.2c-1.5,0.9-2.4,1.9-2.8,3c-0.2,0.4-0.3,0.9-0.3,1.3c0,1.7,1,3.1,3.1,4.4l38,21.9c2.1,1.2,4.6,1.8,7.5,1.8    s5.4-0.6,7.5-1.8c0.2-0.1,0.4-0.2,0.6-0.3C362.8,201.9,363.6,201,364,200.1z"></path>
		<path class="st72" d="M349.4,196.7c-0.5,0.5-0.8,1-0.8,1.6c0,0.8,0.5,1.5,1.5,2.1s2.2,0.9,3.6,0.9s2.6-0.3,3.6-0.9    c0.1,0,0.1-0.1,0.2-0.1c0.9-0.5,1.3-1.2,1.3-2c0-0.6-0.3-1.2-0.9-1.7c-0.1,1-0.5,1.9-1.3,2.7c-0.1,0.1-0.2,0.2-0.3,0.3    c-0.8,0.6-1.7,1-2.7,1c-1.2,0-2.2-0.4-3-1.2C349.9,198.6,349.5,197.7,349.4,196.7z M310.4,176c-0.6,0.5-0.8,1-0.8,1.6    c0,0.8,0.5,1.5,1.5,2.1s2.2,0.8,3.6,0.8s2.6-0.2,3.6-0.8c0.6-0.4,1-0.8,1.3-1.2c0.2-0.3,0.2-0.6,0.2-0.9c0-0.6-0.3-1.2-0.9-1.7    c0,0.7-0.2,1.3-0.6,1.8c-0.2,0.3-0.4,0.6-0.7,0.8c-0.8,0.8-1.9,1.3-3,1.3c-1.2,0-2.2-0.4-3-1.3C310.9,177.9,310.5,177,310.4,176z"></path>
		
			<linearGradient id="SVGID_26_" gradientUnits="userSpaceOnUse" x1="953.3665" y1="33.35" x2="1012.5665" y2="33.35" gradientTransform="matrix(-1 0 0 1 1317.3665 178)">
			<stop offset="3.529410e-02" style="stop-color:#BE9800"></stop>
			<stop offset="0.298" style="stop-color:#FFCC00"></stop>
			<stop offset="0.898" style="stop-color:#FFCC00"></stop>
			<stop offset="1" style="stop-color:#E0B300"></stop>
		</linearGradient>
		<path class="st73" d="M364,204v-3.9c-0.4,1-1.1,1.8-2.3,2.6c-0.2,0.1-0.4,0.2-0.6,0.3c-2.1,1.2-4.6,1.8-7.5,1.8s-5.4-0.6-7.5-1.8    l-38-21.9c-2.1-1.2-3.1-2.7-3.1-4.4c0-0.5,0.1-0.9,0.3-1.3l-0.5-0.3v44.5c0,1.7,1.1,3.1,3.1,4.3l38,21.9c2.1,1.2,4.5,1.8,7.4,1.8    h1.2c2.4-0.1,4.5-0.7,6.3-1.7c1.2-0.7,2.2-1.4,3.1-2.3V204H364z M329,216.5C329,216.5,328.9,216.6,329,216.5l-0.1,9.7l-0.2-0.1    l-1.6,0.7l-5.7-3.3v-10.6c-0.1-0.2-0.2-0.3-0.3-0.5c-1-1.8-1.6-3.6-1.6-5.3s0.5-2.9,1.6-3.5c0.4-0.3,0.9-0.4,1.4-0.4    c0.1-0.1,0.2-0.2,0.3-0.2c1-0.6,2.3-0.5,3.8,0.3s2.7,2.2,3.8,4c1,1.8,1.5,3.6,1.5,5.3s-0.5,2.8-1.6,3.4    C330,216.3,329.5,216.5,329,216.5z"></path>
		<path class="st74" d="M322.6,203.3c-0.8,0.6-1.3,1.7-1.3,3.3c0,1.7,0.5,3.4,1.5,5.3c0.1,0.2,0.2,0.4,0.3,0.6V223l5.6,3.2l0.2,0.1    v-9.6v-0.1h0.1c0.5,0,1-0.2,1.4-0.4c1-0.6,1.6-1.8,1.6-3.4c0-1.7-0.5-3.5-1.5-5.3s-2.3-3.2-3.8-4s-2.7-1-3.8-0.3    C322.7,203.1,322.6,203.2,322.6,203.3z"></path>
		<path class="st75" d="M328.7,226.1l-5.6-3.2v-10.5c-0.1-0.2-0.2-0.4-0.3-0.6c-1-1.8-1.6-3.6-1.5-5.3c0-1.5,0.4-2.6,1.3-3.3    c-0.5,0-1,0.1-1.4,0.4c-1.1,0.6-1.6,1.8-1.6,3.5s0.5,3.4,1.6,5.3c0.1,0.2,0.2,0.3,0.3,0.5v10.6l5.7,3.3L328.7,226.1z M328.9,216.6    C328.9,216.6,329,216.5,328.9,216.6C329,216.5,328.9,216.5,328.9,216.6L328.9,216.6z"></path>
	</g>
</g>
<polyline class="st76" points="594.5,470.2 581.8,482 615.5,479.4 627.8,471.4 "></polyline>
<g>
	<path class="st77" d="M610.2,483.2c-3.7,3.6-7.5,6.6-11.1,8.8c-0.3,0.3-0.7,0.6-1.1,0.8c-3,2-6.2,3.2-9.7,3.6   c-3.1,0.5-5.5-0.4-7.2-2.7c-0.3-0.4-0.5-0.8-0.8-1.3v0.1c0,0.4-0.1,0.9-0.1,1.3c0,2.3,1.1,3.9,3.3,4.9c1.1,0.4,2.4,0.7,3.8,0.7   c1.5,0.2,3,0.2,4.5-0.1c1.6-0.3,3.2-0.8,4.8-1.5c1-0.4,2-0.9,3-1.5c0.2-0.1,0.5-0.2,0.7-0.4c4-2.2,7.7-5,11-8.3   c4.4-4.3,8.7-8.6,13-12.9c-0.2,0.1-0.5,0.2-0.7,0.3C617.3,478,612.8,480.8,610.2,483.2z"></path>
	<path class="st77" d="M711.7,522.1c-0.5,1.6-1.1,2.9-1.7,4c-1.2,2.3-2.8,4.2-4.9,5.8c-2.2,1.7-4.4,2.7-6.8,3.1   c-2.6,0.5-5,0.2-7.2-0.9c-2-2.7-3.3-5.7-4.1-9.1c0,0.3,0,0.7,0,1.1c0,0.1,0,0.8,0.1,2.1s0.3,2.4,0.6,3.5c0.1,0.2,0.1,0.4,0.2,0.6   c0.9,2.5,2.2,4.3,4.1,5.2c1,0.5,2.2,0.7,3.6,0.7c5.1,0,9.3-2,12.6-5.9c2.5-3,3.7-5.5,3.7-7.6C712,524.4,711.9,523.5,711.7,522.1z"></path>
	<path class="st77" d="M640.1,467.3L640.1,467.3c0-0.2,0-0.3-0.1-0.5h-0.1l-0.4-1.1h0.1c-0.1-0.1-0.2-0.2-0.3-0.4l-0.1-0.2h-0.1   c-0.1-0.2-0.2-0.3-0.4-0.5c-0.3,0.4-0.6,0.9-1,1.3l-3.2,2.9c-2.4,1.7-5.7,3.6-10,5.6c0.1,0.6,0.1,1.2,0.1,1.7   c0.1,1.3,0.7,2,1.9,2.2c0.9,0.2,1.8,0.3,2.7,0.2c2.6-0.4,5-1.5,7.2-3.2c2.6-1.9,3.8-4.5,3.6-7.6   C640.1,467.7,640.1,467.6,640.1,467.3L640.1,467.3z"></path>
</g>
<g>
	<path class="st78" d="M649.6,370.7c-2,9.3-4.2,18.7-6.8,28.2c0,0.2,0,0.3,0,0.5c0.1,0.9,0.1,1.8,0.2,2.7c3.6-6.1,7.4-11.4,11.4-16   c-0.9-2.4-1.8-5.2-2.7-8.3C651,375.2,650.3,372.8,649.6,370.7z"></path>
	<path class="st78" d="M685.3,273c0.4-1.3,1.1-2.3,2-3c3.5-2.5,8.2-6.8,14.2-12.9c3.6-3.8,6.8-6.9,9.5-9.3c1.8-1.6,3.3-2.9,4.7-3.8   c-2.5-3.5-4.9-6.7-7.3-9.7c-2.2-2.6-4.4-5.2-6.6-7.6c-1.8-1.9-3.8-4.6-6.1-7.9c-0.3-0.5-0.6-0.9-0.8-1.2c-0.1-0.1-0.3-0.3-0.4-0.5   c-0.8-1.2-1.5-2.3-2.1-3.1l-1.1-1.6c-0.6-0.7-1-1.4-1.3-1.8c-1.2,2.6-3.7,7.1-7.7,13.4c-3.3,4.9-6,10-8.2,15.5   c-2,4.9-3.2,9.9-3.5,15.1c-0.2,2.3-0.4,4.7-0.6,7.1c-0.1,1.5-0.3,3-0.4,4.7c0,1.6-0.1,3-0.1,4.2c1-0.2,2-0.3,3.1-0.3   C675.4,270.3,679.7,271.2,685.3,273z"></path>
	<path class="st78" d="M773.3,396.6c26.2-104.5,7.8-170.8-55.2-198.7c1.8,2.4,3.6,5.1,5.4,7.8c2.5,3.8,4,6.1,4.4,6.8   c2.3,2.8,4.8,6.7,7.5,11.5l6.6,12.1c1.6,2.7,2.6,5.3,2.9,7.8c0.4,3.1-0.2,5.7-1.8,7.9c-3.1,4.2-7.9,8.4-14.5,12.7   c-3.7,2.3-6.5,4.1-8.3,5.2c-3.3,2.1-6,3.9-8,5.5c-1.6,1.3-4.6,2.8-8.9,4.7c-4,1.8-6.9,3.4-8.7,5c-0.8,0.6-1.6,1-2.4,1.2   c-0.4,0.3-0.9,0.5-1.3,0.7c-2.4,2.6-5.4,4.6-8.9,6.1c-3.1,1.3-6.5,2.1-10.2,2.5c0.5,2.9,1.2,5.5,2.3,7.6c1.2,3.5,2.6,8.1,4,14   c1.8,7.4,3,12.1,3.6,14.2c1.3,7.3,2.8,18.4,4.4,33.4c0.1,0.8,0.3,1.6,0.4,2.4c10.4-1.4,21.6,0.9,33.5,7.1l0.1-0.1   c0.4,0.2,0.9,0.4,1.5,0.7l0,0c1.3,0.6,2.5,1.3,3.8,2.1c11.6,7,18.9,19.6,21.8,37.6l0,0l0,0c0.2,1,0.3,2,0.4,3.1   c0.1,0.6,0.1,1.2,0.2,1.7l0,0c1.7,16.1,0.4,36-4.1,59.8c1.5-1.6,3.1-3.3,4.6-5.2c9.3-24.3,16.8-47,22.5-68.2l2.6-1.8L773.3,396.6   L773.3,396.6z"></path>
</g>
<path class="st79" d="M809.5,349.7c1.9-13.9,2-27.4,0.2-40.6c-5.9-88-47.4-141.3-124.6-160c0.5,1.4,0.8,3,0.8,4.7  c0,4.4-1.4,8.3-4.1,11.7c-0.8,0.9-1.7,1.9-2.7,2.8c2,1.4,4.5,2.6,7.5,3.5c1.7,0.6,4.4,1.3,8.1,2.2c1.4,0.4,2.7,0.9,3.8,1.4  c1.4,0.6,2.7,1.2,3.7,1.8c0.1,0.2,0.2,0.4,0.4,0.5c0.9,1.4,2.2,3.1,4,5.2c1.8,2.5,4.4,5.7,7.5,9.6c1.3,1.6,2.7,3.4,4,5.2  c63.1,28,81.4,94.3,55.2,198.9c-1.5,5.6-2.9,10.8-3.9,14.5c-5.6,19.6-12.6,40.6-21,62.8c-0.4,1-0.7,2.1-1.1,3  c27.9-35.2,46.7-68.6,56.3-100.3c0,0,0,0,0-0.1c0.7-2.1,1.4-4.7,2-7.3c0.1-0.3,0.2-0.7,0.3-1l0,0c0.2-0.9,0.4-1.9,0.6-2.8  c0,0,0-0.1,0.1-0.1c1.2-5.2,2.2-10.3,2.9-15.4C809.5,349.8,809.5,349.7,809.5,349.7L809.5,349.7z"></path>
<g>
	<path class="st80" d="M631.1,468.1l-8.8,2.1c-0.3,0-0.7,0-1,0c-3.6-0.6-6.5-1.6-8.7-3c-2.8-1.9-4.2-4.3-4.1-7.2   c-1.3,1.2-2.8,2.4-4.5,3.7c-1.8,1.3-4.6,3.2-8.3,5.7c-3.8,2.6-6.9,5.2-9.4,7.9l-1.1,1.4h-0.1c-0.8,0.9-1.4,1.7-2,2.6   c-0.5,0.8-1,1.6-1.4,2.4c-1.5,2.3-2,4.9-1.6,7.8c0,0.2,0,0.4,0.1,0.6s0.1,0.3,0.2,0.5c0.2,0.5,0.5,0.9,0.8,1.3   c1.7,2.3,4.1,3.2,7.2,2.7c3.5-0.4,6.7-1.6,9.7-3.6c0.4-0.2,0.8-0.5,1.1-0.8c3.7-2.2,7.4-5.1,11.1-8.8c2.6-2.5,7.1-5.2,13.4-8.2   c0.2-0.1,0.5-0.2,0.7-0.3c0.1-0.1,0.2-0.1,0.4-0.2c3.2-1.5,5.9-3,8.1-4.4h0.1c1.2-0.7,2.2-1.4,3-2.1l1.8-1.7c0.5-0.5,0.9-1,1.2-1.5   c0.5-0.9,0.9-1.8,1-2.8c-1.8,1.8-3.8,3.4-6.2,4.7C632.9,467.2,632,467.7,631.1,468.1z"></path>
	<path class="st80" d="M712.5,482.2c-0.1,0-0.2,0-0.3-0.1s-0.1-0.1-0.1-0.2c0-0.2-0.1-0.3-0.1-0.5v-0.1c0-0.1,0-0.1,0.1-0.1   c0.1-0.1,0.1-0.2,0.2-0.3c-0.3-1.3-0.6-2.7-1.1-4.1c-1.7-5.8-2.6-9.6-2.9-11.5c-0.5-3.8-1.2-8.9-1.8-15.1l-1-10.7v-0.1v-0.1l0,0   c-0.4-4.2-0.7-7.2-1-9.1c-0.2-1.3-0.3-2.6-0.5-3.8c-0.2-1.2-0.4-2.4-0.6-3.6c-0.7-3.9-1.5-7.5-2.4-11c-1.5-5.7-3.4-10.8-5.6-15.2   c-3.9-7.9-6.9-17.8-8.8-29.9c-0.1-0.8-0.3-1.6-0.4-2.4c-1.6-15-3.1-26.1-4.4-33.4c-0.6-2.1-1.8-6.8-3.6-14.2   c-1.4-5.9-2.8-10.5-4-14c-1.1-2.1-1.8-4.7-2.3-7.6c-0.1,0-0.2,0-0.3,0c-3.7-0.4-6.3-2.8-7.8-6.9c-0.7-1.8-1.1-3.7-1.2-5.5   c0-0.1,0-0.3,0-0.4c-0.1,0-0.2,0.1-0.3,0.1h-0.1c-2.8,1.5-5.7,2.8-8.7,3.8c-3.9,1.3-7.9,2.2-12.1,2.5c-3.8,0.4-7.5,0.3-11.1-0.1   c-0.4,0-0.8-0.1-1.2-0.1c-1,6.6-1.5,10.8-1.5,12.6c0,8.7,2.7,19.4,8,32.1c0.6,0.5,1.3,2,2.1,4.4c0.1,0.3,0.3,0.7,0.5,1   c0.1,0.1,0.1,0.2,0.2,0.4l-0.1,0.6c0.6,2,1.3,4.1,2.1,6.3c1.1,3.3,3,8.3,5.5,14.9c1,2.1,2.1,5.3,3.4,9.6c0.7,2.1,1.4,4.5,2.1,7.1   c0.9,3.1,1.8,5.9,2.7,8.3c1.2,3.3,2.4,6,3.7,8.1c1.4,2.3,3.2,6.1,5.5,11.4c2.2,5.1,4.1,8.9,5.7,11.3c1.3,3.6,2.6,7.9,3.8,12.8   c1.6,6.3,3.2,13.8,4.7,22.4c0.1,0.4,0.1,0.8,0.2,1.1c0,0,0.1,0,0.1-0.1l0.4,1.7c2.8,15.2,5.2,26.2,7.2,32.7c0.4,0.7,0.8,1.4,1.3,2   c1.1,1.5,2.6,2.7,4.2,3.7l0.1,0.1c2.4,1.3,5,2,7.8,2.1c2.9,0.1,5.5-0.4,7.9-1.6c0.8-0.4,1.5-0.8,2.1-1.2c0.5-0.4,1-0.8,1.5-1.2   c0.9-0.9,1.7-1.9,2.4-3C713,486.5,712.9,484.5,712.5,482.2z"></path>
</g>
</svg>